<svg width="24" height="24" viewBox="0 0 24 24" fill="none" xmlns="http://www.w3.org/2000/svg">
<path fill-rule="evenodd" clip-rule="evenodd" d="M12 13.7539C12.4142 13.7539 12.75 13.4181 12.75 13.0039V8.00392C12.75 7.5897 12.4142 7.25392 12 7.25392C11.5858 7.25392 11.25 7.5897 11.25 8.00392V13.0039C11.25 13.4181 11.5858 13.7539 12 13.7539Z" fill="#595959"/>
<path d="M12.9985 16C12.9985 16.5523 12.5508 17 11.9985 17C11.4463 17 10.9985 16.5523 10.9985 16C10.9985 15.4477 11.4463 15 11.9985 15C12.5508 15 12.9985 15.4477 12.9985 16Z" fill="#595959"/>
<path fill-rule="evenodd" clip-rule="evenodd" d="M11.9985 20.4961C16.693 20.4961 20.4985 16.6905 20.4985 11.9961C20.4985 7.30167 16.693 3.49609 11.9985 3.49609C7.30411 3.49609 3.49853 7.30167 3.49853 11.9961C3.49853 16.6905 7.30411 20.4961 11.9985 20.4961ZM11.9985 21.9961C17.5214 21.9961 21.9985 17.5189 21.9985 11.9961C21.9985 6.47325 17.5214 1.99609 11.9985 1.99609C6.47569 1.99609 1.99854 6.47325 1.99854 11.9961C1.99854 17.5189 6.47569 21.9961 11.9985 21.9961Z" fill="#595959"/>
</svg>
