<svg width="36" height="36" viewBox="0 0 36 36" fill="none" xmlns="http://www.w3.org/2000/svg">
<path d="M15.4209 9.78328C15.6265 9.50422 15.8468 9.23984 16.0965 8.99016C19.2396 5.84703 24.3803 5.84703 27.5234 8.99016C30.6665 12.1333 30.6665 17.2739 27.5234 20.417C27.2737 20.6667 26.9946 20.8723 26.7155 21.078" stroke="black" stroke-width="2.20312" stroke-linecap="round" stroke-linejoin="round"/>
<path d="M14.4551 30.125C18.8907 30.125 22.5332 26.4825 22.5332 22.0469C22.5332 17.6113 18.8907 13.9688 14.4551 13.9688C10.0048 13.9688 6.37695 17.6113 6.37695 22.0469C6.37695 23.8534 6.99381 25.5278 8.00724 26.8791C9.49068 28.8472 11.826 30.125 14.4551 30.125Z" stroke="black" stroke-width="2.20312" stroke-linecap="round" stroke-linejoin="round"/>
<path d="M14.4512 18.7461V18.0117" stroke="black" stroke-width="2.20312" stroke-linecap="round" stroke-linejoin="round"/>
<path d="M14.4512 25.3477V26.082" stroke="black" stroke-width="2.20312" stroke-linecap="round" stroke-linejoin="round"/>
<path d="M12.5417 24.5516C12.8208 25.0216 13.3202 25.3447 13.9077 25.3447H14.4659H15.1267C15.9786 25.3447 16.669 24.6544 16.669 23.8025C16.669 23.0975 16.1842 22.4806 15.4939 22.3044L13.4231 21.7903C12.7328 21.6141 12.248 20.9972 12.248 20.2922C12.248 19.4403 12.9384 18.75 13.7903 18.75H14.4512H15.0093C15.5968 18.75 16.0816 19.0731 16.3606 19.5431" stroke="black" stroke-width="2.20312" stroke-linecap="round" stroke-linejoin="round"/>
<path d="M32.6664 23.6191C32.6664 28.7451 28.4951 32.9163 23.3691 32.9163L24.7646 30.5957" stroke="black" stroke-width="2.20312" stroke-linecap="round" stroke-linejoin="round"/>
<path d="M3.43555 12.9886C3.43555 7.86266 7.60673 3.69141 12.7327 3.69141L11.3374 6.01203" stroke="black" stroke-width="2.20312" stroke-linecap="round" stroke-linejoin="round"/>
</svg>
