<svg width="17" height="17" viewBox="0 0 17 17" fill="none" xmlns="http://www.w3.org/2000/svg">
<g clip-path="url(#clip0_93_629)">
<path d="M10.8847 6.68945C10.6811 6.68945 10.5161 6.85446 10.5161 7.05805V14.0245C10.5161 14.228 10.6811 14.3931 10.8847 14.3931C11.0883 14.3931 11.2533 14.228 11.2533 14.0245V7.05805C11.2533 6.85446 11.0883 6.68945 10.8847 6.68945Z" fill="#414141"/>
<path d="M6.53315 6.68945C6.32956 6.68945 6.16455 6.85446 6.16455 7.05805V14.0245C6.16455 14.228 6.32956 14.3931 6.53315 14.3931C6.73674 14.3931 6.90174 14.228 6.90174 14.0245V7.05805C6.90174 6.85446 6.73674 6.68945 6.53315 6.68945Z" fill="#414141"/>
<path d="M3.36572 5.672V14.7534C3.36572 15.2902 3.56254 15.7943 3.90637 16.1559C4.24862 16.5186 4.72491 16.7245 5.22338 16.7254H12.1973C12.6959 16.7245 13.1722 16.5186 13.5143 16.1559C13.8581 15.7943 14.055 15.2902 14.055 14.7534V5.672C14.7385 5.49058 15.1813 4.83028 15.0899 4.12894C14.9983 3.42774 14.401 2.90321 13.6937 2.90307H11.8065V2.44233C11.8087 2.05487 11.6555 1.68282 11.3812 1.40911C11.1069 1.13554 10.7343 0.983209 10.3468 0.986377H7.07384C6.68638 0.983209 6.31376 1.13554 6.03947 1.40911C5.76518 1.68282 5.61199 2.05487 5.61415 2.44233V2.90307H3.72697C3.01973 2.90321 2.42234 3.42774 2.33077 4.12894C2.23934 4.83028 2.68223 5.49058 3.36572 5.672ZM12.1973 15.9882H5.22338C4.59317 15.9882 4.10291 15.4468 4.10291 14.7534V5.70439H13.3178V14.7534C13.3178 15.4468 12.8275 15.9882 12.1973 15.9882ZM6.35134 2.44233C6.34889 2.2504 6.42434 2.06567 6.56054 1.93018C6.69661 1.79469 6.88177 1.72026 7.07384 1.72357H10.3468C10.5389 1.72026 10.7241 1.79469 10.8601 1.93018C10.9964 2.06552 11.0718 2.2504 11.0694 2.44233V2.90307H6.35134V2.44233ZM3.72697 3.64026H13.6937C14.0602 3.64026 14.3572 3.9373 14.3572 4.30373C14.3572 4.67017 14.0602 4.9672 13.6937 4.9672H3.72697C3.36053 4.9672 3.0635 4.67017 3.0635 4.30373C3.0635 3.9373 3.36053 3.64026 3.72697 3.64026Z" fill="#414141"/>
<path d="M8.71235 6.68945C8.50875 6.68945 8.34375 6.85446 8.34375 7.05805V14.0245C8.34375 14.228 8.50875 14.3931 8.71235 14.3931C8.91594 14.3931 9.08094 14.228 9.08094 14.0245V7.05805C9.08094 6.85446 8.91594 6.68945 8.71235 6.68945Z" fill="#414141"/>
</g>
<defs>
<clipPath id="clip0_93_629">
<rect width="15.7391" height="15.7391" fill="white" transform="translate(0.843262 0.986328)"/>
</clipPath>
</defs>
</svg>
