<svg width="14" height="14" viewBox="0 0 14 14" fill="none" xmlns="http://www.w3.org/2000/svg">
<path fill-rule="evenodd" clip-rule="evenodd" d="M8.60339 1.22672C9.40829 0.421823 10.7133 0.421823 11.5182 1.22672L12.4898 2.19832C13.2947 3.00321 13.2947 4.30821 12.4898 5.11311L5.34989 12.253C5.25398 12.3489 5.13183 12.4143 4.99883 12.4409L1.35534 13.1696C0.87462 13.2657 0.450782 12.8419 0.546927 12.3612L1.27562 8.71767C1.30222 8.58467 1.3676 8.46251 1.46351 8.36661L8.60339 1.22672ZM10.7895 1.95542L11.7611 2.92701C12.1635 3.32946 12.1635 3.98196 11.7611 4.38441L10.668 5.47748L8.23902 3.04848L9.33209 1.95542C9.73454 1.55297 10.387 1.55297 10.7895 1.95542ZM7.51033 3.77718L2.26575 9.02176L1.6585 12.058L4.69474 11.4508L9.93932 6.20617L7.51033 3.77718Z" fill="#414141"/>
</svg>
