<svg width="24" height="24" viewBox="0 0 24 24" fill="none" xmlns="http://www.w3.org/2000/svg">
<path fill-rule="evenodd" clip-rule="evenodd" d="M4 14.5C4.27614 14.5 4.5 14.7239 4.5 15V17C4.5 17.8284 5.17157 18.5 6 18.5H18C18.8284 18.5 19.5 17.8284 19.5 17V15C19.5 14.7239 19.7239 14.5 20 14.5C20.2761 14.5 20.5 14.7239 20.5 15V17C20.5 18.3807 19.3807 19.5 18 19.5H6C4.61929 19.5 3.5 18.3807 3.5 17V15C3.5 14.7239 3.72386 14.5 4 14.5Z" fill="black"/>
<path d="M16.8536 9.64454C17.0489 9.8398 17.0489 10.1564 16.8536 10.3516C16.6584 10.5469 16.3418 10.5469 16.1465 10.3516L12.502 6.70716V15.0005C12.502 15.2766 12.2782 15.5005 12.002 15.5005C11.7259 15.5005 11.502 15.2766 11.502 15.0005V6.70706L7.85551 10.3536C7.66025 10.5489 7.34366 10.5489 7.1484 10.3536C6.95314 10.1583 6.95314 9.84176 7.1484 9.6465L11.6484 5.14645C11.7422 5.05268 11.8694 5 12.002 5C12.1346 5 12.2618 5.05268 12.3555 5.14645L16.8536 9.64454Z" fill="black"/>
</svg>
