<svg width="24" height="24" viewBox="0 0 24 24" fill="none" xmlns="http://www.w3.org/2000/svg">
<path d="M20 9.5C19.7239 9.5 19.5 9.27614 19.5 9V5.20715L5.20714 19.5H9C9.27614 19.5 9.5 19.7239 9.5 20C9.5 20.2761 9.27614 20.5 9 20.5H5C4.17157 20.5 3.5 19.8284 3.5 19V15C3.5 14.7239 3.72386 14.5 4 14.5C4.27614 14.5 4.5 14.7239 4.5 15V18.7929L18.7929 4.5L15 4.5C14.7239 4.5 14.5 4.27614 14.5 4C14.5 3.72386 14.7239 3.5 15 3.5H19C19.8284 3.5 20.5 4.17157 20.5 5V9C20.5 9.27614 20.2761 9.5 20 9.5Z" fill="black"/>
<path fill-rule="evenodd" clip-rule="evenodd" d="M3.5 5C3.5 4.17157 4.17157 3.5 5 3.5H9C9.27614 3.5 9.5 3.72386 9.5 4C9.5 4.27614 9.27614 4.5 9 4.5H5C4.72386 4.5 4.5 4.72386 4.5 5V9C4.5 9.27614 4.27614 9.5 4 9.5C3.72386 9.5 3.5 9.27614 3.5 9V5Z" fill="black"/>
<path fill-rule="evenodd" clip-rule="evenodd" d="M20.5 19C20.5 19.8284 19.8284 20.5 19 20.5H15C14.7239 20.5 14.5 20.2761 14.5 20C14.5 19.7239 14.7239 19.5 15 19.5H19C19.2761 19.5 19.5 19.2761 19.5 19V15C19.5 14.7239 19.7239 14.5 20 14.5C20.2761 14.5 20.5 14.7239 20.5 15V19Z" fill="black"/>
</svg>
