<svg width="19" height="20" viewBox="0 0 19 20" fill="none" xmlns="http://www.w3.org/2000/svg">
<path d="M1.5 10C1.5 5.30558 5.30558 1.5 10 1.5C13.0362 1.5 15.6521 3.09255 17.147 5.49603L14.5015 5.48828C14.2253 5.48747 14.0008 5.71068 14 5.98682C13.9992 6.26296 14.2224 6.48747 14.4985 6.48828L17.9593 6.49842C17.9855 6.50058 18.012 6.50068 18.0385 6.49865L18.4985 6.5C18.6314 6.50039 18.7589 6.44788 18.853 6.35407C18.9471 6.26026 19 6.13286 19 6L19 2C19 1.72386 18.7761 1.5 18.5 1.5C18.2239 1.5 18 1.72386 18 2L18 4.97413C16.3334 2.29095 13.4053 0.5 10 0.5C4.75329 0.5 0.5 4.75329 0.5 10C0.5 15.2467 4.75329 19.5 10 19.5C13.7348 19.5 16.8957 17.3456 18.4478 14.2225C18.5707 13.9752 18.4698 13.6751 18.2225 13.5522C17.9752 13.4294 17.6751 13.5302 17.5522 13.7775C16.1589 16.5813 13.3326 18.5 10 18.5C5.30558 18.5 1.5 14.6944 1.5 10Z" fill="black"/>
</svg>
