<svg width="35" height="35" viewBox="0 0 35 35" fill="none" xmlns="http://www.w3.org/2000/svg">
<g clip-path="url(#clip0_93_1535)">
<path d="M31.4375 8.9375V13.8594C31.4375 14.8156 31.0438 15.7016 30.411 16.3344C30.2563 16.5031 30.0735 16.6437 29.8907 16.7703C29.7078 16.8828 29.525 16.9953 29.3281 17.0797C28.8922 17.2625 28.4281 17.375 27.9219 17.375C25.9813 17.375 24.4062 15.8 24.4062 13.8594C24.4062 15.8 22.8312 17.375 20.8906 17.375C18.95 17.375 17.375 15.8 17.375 13.8594C17.375 15.8 15.8 17.375 13.8594 17.375C11.9188 17.375 10.3438 15.8 10.3438 13.8594C10.3438 15.8 8.76875 17.375 6.82812 17.375C6.32187 17.375 5.85781 17.2625 5.42188 17.0797C5.225 16.9953 5.04215 16.8828 4.85934 16.7703C4.49372 16.5172 4.17039 16.1937 3.91726 15.8281C3.53758 15.2656 3.3125 14.5906 3.3125 13.8594V8.9375C3.3125 5.82969 5.82969 3.3125 8.9375 3.3125H25.8125C28.9063 3.3125 31.4375 5.84375 31.4375 8.9375Z" stroke="black" stroke-width="2.10938" stroke-linecap="round" stroke-linejoin="round"/>
<path d="M29.3281 17.0797V25.8125C29.3281 28.9063 26.7969 31.4375 23.7031 31.4375H11.0469C7.95312 31.4375 5.42188 28.9063 5.42188 25.8125V17.0797C5.85781 17.2625 6.32187 17.375 6.82812 17.375C8.76875 17.375 10.3438 15.8 10.3438 13.8594C10.3438 15.8 11.9188 17.375 13.8594 17.375C15.8 17.375 17.375 15.8 17.375 13.8594C17.375 15.8 18.95 17.375 20.8906 17.375C22.8312 17.375 24.4062 15.8 24.4062 13.8594C24.4062 15.8 25.9813 17.375 27.9219 17.375C28.4281 17.375 28.8922 17.2625 29.3281 17.0797Z" stroke="black" stroke-width="2.10938" stroke-linecap="round" stroke-linejoin="round"/>
<path d="M20.1875 31.4375H14.5625V27.2188C14.5625 25.6719 15.8281 24.4062 17.375 24.4062C18.9219 24.4062 20.1875 25.6719 20.1875 27.2188V31.4375Z" stroke="black" stroke-width="2.10938" stroke-linecap="round" stroke-linejoin="round"/>
</g>
<defs>
<clipPath id="clip0_93_1535">
<rect width="33.75" height="33.75" fill="white" transform="translate(0.5 0.5)"/>
</clipPath>
</defs>
</svg>
