<?xml version="1.0" encoding="utf-8"?>
<!-- Generator: Adobe Illustrator 24.3.0, SVG Export Plug-In . SVG Version: 6.00 Build 0)  -->
<svg version="1.1" xmlns="http://www.w3.org/2000/svg" xmlns:xlink="http://www.w3.org/1999/xlink" x="0px" y="0px"
	 viewBox="0 0 196 196" style="enable-background:new 0 0 196 196;" xml:space="preserve">
<style type="text/css">
	.st0{display:none;}
	.st1{fill:none;stroke:#000000;stroke-width:7;stroke-linecap:round;stroke-miterlimit:10;}
</style>
<g id="Layer_1" class="st0">
	
		<image style="display:inline;overflow:visible;" width="817" height="920" xlink:href="undo.png"  transform="matrix(0.1201 0 0 0.1201 48.9399 45.305)">
	</image>
</g>
<g id="Layer_2">
	<g>
		<g>
			<path class="st1" d="M139.8,172.2c0,0,140.8-86.8-97.5-92.3"/>
			<g>
				<path d="M91,47.7c1,1.7,0.5,3.8-1.2,4.8L43.9,80L88.3,110c1.6,1.1,2,3.3,0.9,4.9c-1.1,1.6-3.3,2-4.9,0.9l-48.9-33
					c-1-0.7-1.6-1.8-1.5-3c0-1.2,0.7-2.3,1.7-2.9l50.6-30.4c0.6-0.4,1.2-0.5,1.9-0.5C89.3,46,90.4,46.6,91,47.7z"/>
			</g>
		</g>
	</g>
</g>
</svg>
