<svg width="20" height="18" viewBox="0 0 20 18" fill="none" xmlns="http://www.w3.org/2000/svg">
<path fill-rule="evenodd" clip-rule="evenodd" d="M0.25 1C0.25 0.585786 0.585786 0.25 1 0.25H1.43845C2.70033 0.25 3.80029 1.10882 4.10634 2.33303L4.33558 3.25H16.5068C18.2661 3.25 19.5729 4.87915 19.1913 6.59656L18.0802 11.5966C17.8006 12.8548 16.6846 13.75 15.3957 13.75H7.56155C6.29967 13.75 5.19971 12.8912 4.89366 11.667L2.65113 2.69683C2.51201 2.14037 2.01203 1.75 1.43845 1.75H1C0.585786 1.75 0.25 1.41421 0.25 1ZM4.71058 4.75L6.34887 11.3032C6.48799 11.8596 6.98797 12.25 7.56155 12.25H15.3957C15.9815 12.25 16.4888 11.8431 16.6159 11.2712L17.727 6.27116C17.9005 5.49052 17.3065 4.75 16.5068 4.75H4.71058Z" fill="black"/>
<path fill-rule="evenodd" clip-rule="evenodd" d="M9 16.5C9 17.3284 8.32843 18 7.5 18C6.67157 18 6 17.3284 6 16.5C6 15.6716 6.67157 15 7.5 15C8.32843 15 9 15.6716 9 16.5Z" fill="black"/>
<path fill-rule="evenodd" clip-rule="evenodd" d="M17 16.5C17 17.3284 16.3284 18 15.5 18C14.6716 18 14 17.3284 14 16.5C14 15.6716 14.6716 15 15.5 15C16.3284 15 17 15.6716 17 16.5Z" fill="black"/>
</svg>
