<svg width="32" height="32" viewBox="0 0 32 32" fill="none" xmlns="http://www.w3.org/2000/svg">
<path fill-rule="evenodd" clip-rule="evenodd" d="M24.2343 1.92039C24.2921 1.28629 24.6664 0.771975 25.1333 0.449236C25.5895 0.133821 26.1613 -0.0134251 26.7264 0.000959563C26.7327 0.00121126 26.7393 0.00106934 26.7459 0.000927181C26.753 0.000773901 26.7601 0.000620335 26.7669 0.000959563C28.1157 0.0713134 29.1881 1.22287 29.1371 2.57554C29.1345 2.64372 29.0947 2.6872 29.0546 2.73107C29.02 2.76891 28.9851 2.80703 28.9736 2.86154C29.6691 2.85199 30.3557 3.08489 30.8535 3.63804C31.7681 4.65412 31.7076 6.23944 30.69 7.15247C30.2442 7.55249 29.6612 7.67058 29.178 7.68365C28.7781 7.69025 28.4042 7.63667 28.0723 7.58909L28.0722 7.58908L28.0721 7.58906C28.003 7.57916 27.9357 7.56951 27.8703 7.56073C27.0403 7.45049 26.3925 7.80461 25.7044 8.62323C25.0164 9.44184 24.4149 10.6674 23.9473 11.9334C23.9345 11.9693 23.9211 12.0012 23.9076 12.033L23.9076 12.033C23.8936 12.0663 23.8796 12.0996 23.8662 12.1377C25.1841 12.357 26.3562 13.0776 27.1762 14.2627C28.118 15.6236 28.7053 17.469 28.6883 19.4526C28.6713 21.3675 28.12 23.1176 27.2171 24.4382C26.3142 25.7587 25.013 26.6534 23.4983 26.7267C23.4848 26.7271 23.4713 26.7271 23.4578 26.7267H16.0203H10.9938C9.76931 26.729 8.83886 26.758 8.5996 26.7655L8.54187 26.7672C7.42497 26.7951 6.24922 26.8155 5.10917 26.6443C3.96913 26.473 2.82856 26.0865 2.04434 25.2139C1.20624 24.2819 0.885589 22.9258 0.736643 21.536C0.587305 20.1464 0.659489 18.6833 0.777182 17.5722C1.22781 13.2957 5.38588 9.77596 9.68584 8.62257L9.71205 8.61539C9.90004 8.56366 10.6396 8.36015 11.6474 8.25485C12.7112 8.14304 14.12 8.10695 15.7748 8.45911C15.8171 8.46853 15.8582 8.48211 15.8978 8.49965C17.195 8.23824 18.3772 7.96533 19.6574 7.51888C20.8412 7.10604 21.9217 6.54426 22.7224 5.68001C23.5231 4.81575 24.0767 3.65007 24.2343 1.92039ZM27.3814 3.43234C27.5934 3.19356 27.8309 2.67323 27.8309 2.53331C27.8558 1.87488 27.3466 1.33088 26.6869 1.30512C26.3984 1.29427 26.0867 1.40019 25.8696 1.55031C25.6525 1.70044 25.561 1.84664 25.5427 2.0407C25.3635 4.00747 24.6597 5.50072 23.6628 6.57669C22.666 7.65266 21.4148 8.32756 20.1076 8.78342C18.8033 9.23825 17.4326 9.51298 16.2213 9.75574C15.0046 9.9996 13.9488 10.2112 13.283 10.5407C11.7993 11.275 10.8046 12.179 10.3407 13.1969C9.87689 14.2149 9.87977 15.3665 10.5451 16.7113C10.7112 16.9197 10.7342 17.2081 10.6032 17.4403C10.4722 17.6724 10.2135 17.8018 9.94918 17.7673C9.68488 17.7328 9.46796 17.5414 9.40089 17.2834C8.59967 15.6641 8.52748 14.044 9.1557 12.6657C9.7371 11.3895 10.8968 10.3639 12.384 9.55993C12.2997 9.56499 12.1902 9.55169 12.0819 9.53854H12.0818L12.0818 9.53853C11.9662 9.52449 11.852 9.51061 11.7711 9.51939C10.9642 9.60407 10.4297 9.76374 10.1434 9.84929C10.0924 9.86453 10.0492 9.87742 10.0138 9.88711C6.17337 10.9173 2.45312 14.2489 2.08592 17.7333C1.97738 18.7691 1.91056 20.1538 2.04538 21.4112C2.18007 22.6685 2.52504 23.7963 3.02615 24.3535C3.52556 24.9092 4.29553 25.1874 5.27368 25.3342C6.25184 25.482 7.4285 25.4859 8.54291 25.4572C8.576 25.4566 8.63726 25.4548 8.72486 25.4521L8.72502 25.4521C9.08307 25.4411 9.88095 25.4166 10.9948 25.4166H16.0213H23.4179C23.4297 25.416 23.4454 25.4174 23.4585 25.4166C24.4762 25.3533 25.4332 24.7568 26.1556 23.7003C26.887 22.6304 27.3671 21.0874 27.3815 19.4095C27.3968 17.6765 26.8792 16.1417 26.1146 15.0368C25.4127 14.0224 24.5104 13.4686 23.5402 13.3614C23.459 13.6349 23.3683 13.916 23.2792 14.1922L23.2792 14.1922L23.2792 14.1923C23.1236 14.6745 22.9728 15.1418 22.8863 15.5272C22.6941 16.3861 22.6069 16.969 22.5726 17.1985L22.5725 17.1989C22.5667 17.2377 22.5624 17.2663 22.5594 17.2845C22.097 20.0111 19.6915 22.1066 16.8383 22.1066C15.5698 22.1066 14.3315 21.6905 13.3238 20.9214C13.134 20.7754 13.0365 20.5393 13.068 20.3019C13.0996 20.0645 13.2554 19.862 13.4767 19.7706C13.6981 19.6792 13.9513 19.7129 14.1411 19.8589C14.9211 20.4541 15.8563 20.7989 16.8383 20.7989C19.0591 20.7989 20.8945 19.1864 21.2517 17.0801C21.2541 17.0657 21.3855 16.2841 21.6194 15.2412C21.8534 14.1983 22.2256 12.8273 22.7229 11.4816C23.2201 10.1357 23.8322 8.81755 24.6844 7.8037C25.5365 6.78971 26.7209 6.07074 28.0762 6.25081C28.1679 6.26316 28.2579 6.27602 28.3457 6.28857C28.6575 6.33313 28.9417 6.37374 29.1796 6.37374C29.4843 6.36851 29.6406 6.30574 29.7925 6.16934C30.2843 5.72839 30.357 4.98458 29.9154 4.49393C29.4737 4.00367 28.7326 3.97072 28.2399 4.41285C27.9752 4.61775 27.5985 4.58965 27.3671 4.34773C27.1357 4.10581 27.1244 3.72822 27.3409 3.47288L27.3814 3.43234ZM0.0746291 27.7907C-0.0109744 27.9542 -0.023533 28.1462 0.0400508 28.3194C0.0818524 28.4502 0.104941 28.6133 0.131253 28.7993C0.176554 29.1194 0.231412 29.5071 0.407774 29.9131C0.686182 30.5549 1.38397 31.1127 2.49197 31.3025C2.51803 31.3179 2.54512 31.3315 2.57305 31.3431H27.1788C27.221 31.3337 27.2622 31.3201 27.3017 31.3025C28.1248 31.1675 28.7129 30.6854 29.0181 30.0766C29.3233 29.4678 29.4164 28.8208 29.4267 28.156C29.438 27.9756 29.3742 27.7986 29.2503 27.667C29.1264 27.5353 28.9536 27.4609 28.7729 27.4612H0.652705C0.625705 27.4595 0.598627 27.4595 0.571628 27.4612C0.544628 27.4595 0.51755 27.4595 0.490551 27.4612C0.310912 27.5076 0.160233 27.6273 0.0746291 27.7907ZM27.968 29.0128C27.9766 28.9291 27.9852 28.8455 27.9968 28.7689H1.46975C1.4794 28.8218 1.48885 28.8822 1.49861 28.9446C1.52458 29.1106 1.55276 29.2907 1.59267 29.3819C1.72357 29.6837 1.86415 29.8932 2.69597 30.0358H27.0566C27.5498 29.9547 27.7253 29.8008 27.8739 29.5045C27.9284 29.3955 27.9482 29.204 27.968 29.0128Z" fill="#FCC6BA"/>
</svg>
