<svg width="32" height="32" viewBox="0 0 32 32" fill="none" xmlns="http://www.w3.org/2000/svg">
<path fill-rule="evenodd" clip-rule="evenodd" d="M24.4843 2.24852C24.5421 1.61442 24.9164 1.1001 25.3833 0.777361C25.8395 0.461946 26.4113 0.3147 26.9764 0.329085C26.9827 0.329336 26.9893 0.329194 26.9959 0.329052C27.003 0.328899 27.0101 0.328745 27.0169 0.329085C28.3657 0.399438 29.4381 1.55099 29.3871 2.90367C29.3845 2.97184 29.3447 3.01533 29.3046 3.0592C29.27 3.09704 29.2351 3.13516 29.2236 3.18966C29.9191 3.18012 30.6057 3.41302 31.1035 3.96617C32.0181 4.98225 31.9576 6.56756 30.94 7.48059C30.4942 7.88062 29.9112 7.9987 29.428 8.01178C29.0281 8.01838 28.6542 7.9648 28.3223 7.91722L28.3222 7.91721L28.3221 7.91719C28.253 7.90728 28.1857 7.89764 28.1203 7.88885C27.2903 7.77862 26.6425 8.13274 25.9544 8.95135C25.2664 9.76997 24.6649 10.9955 24.1973 12.2615C24.1845 12.2975 24.1711 12.3293 24.1576 12.3611L24.1576 12.3611C24.1436 12.3944 24.1296 12.4277 24.1162 12.4658C25.4341 12.6851 26.6062 13.4057 27.4262 14.5908C28.368 15.9517 28.9553 17.7971 28.9383 19.7807C28.9213 21.6956 28.37 23.4457 27.4671 24.7663C26.5642 26.0868 25.263 26.9816 23.7483 27.0548C23.7348 27.0552 23.7213 27.0552 23.7078 27.0548H16.2703H11.2438C10.0193 27.0571 9.08886 27.0861 8.8496 27.0936L8.79187 27.0953C7.67497 27.1232 6.49922 27.1436 5.35917 26.9724C4.21913 26.8011 3.07856 26.4147 2.29434 25.542C1.45624 24.6101 1.13559 23.254 0.986643 21.8642C0.837305 20.4745 0.909489 19.0114 1.02718 17.9003C1.47781 13.6239 5.63588 10.1041 9.93584 8.9507L9.96205 8.94352C10.15 8.89179 10.8896 8.68827 11.8974 8.58298C12.9612 8.47117 14.37 8.43508 16.0248 8.78724C16.0671 8.79665 16.1082 8.81023 16.1478 8.82778C17.445 8.56637 18.6272 8.29345 19.9074 7.84701C21.0912 7.43417 22.1717 6.87238 22.9724 6.00813C23.7731 5.14388 24.3267 3.9782 24.4843 2.24852ZM27.6314 3.76047C27.8434 3.52168 28.0809 3.00135 28.0809 2.86143C28.1058 2.20301 27.5966 1.65901 26.9369 1.63325C26.6484 1.62239 26.3367 1.72832 26.1196 1.87844C25.9025 2.02856 25.811 2.17476 25.7927 2.36882C25.6135 4.33559 24.9097 5.82885 23.9128 6.90482C22.916 7.98078 21.6648 8.65568 20.3576 9.11155C19.0533 9.56638 17.6826 9.84111 16.4713 10.0839C15.2546 10.3277 14.1988 10.5393 13.533 10.8688C12.0493 11.6031 11.0546 12.5071 10.5907 13.525C10.1269 14.543 10.1298 15.6946 10.7951 17.0394C10.9612 17.2479 10.9842 17.5363 10.8532 17.7684C10.7222 18.0005 10.4635 18.1299 10.1992 18.0954C9.93488 18.0609 9.71796 17.8695 9.65089 17.6115C8.84967 15.9922 8.77748 14.3721 9.4057 12.9938C9.9871 11.7176 11.1468 10.692 12.634 9.88805C12.5497 9.89311 12.4402 9.87982 12.3319 9.86666H12.3318L12.3318 9.86666C12.2162 9.85262 12.102 9.83874 12.0211 9.84752C11.2142 9.9322 10.6797 10.0919 10.3934 10.1774C10.3424 10.1927 10.2992 10.2055 10.2638 10.2152C6.42337 11.2454 2.70312 14.577 2.33592 18.0614C2.22738 19.0972 2.16056 20.4819 2.29538 21.7393C2.43007 22.9966 2.77504 24.1244 3.27615 24.6816C3.77556 25.2374 4.54553 25.5155 5.52368 25.6624C6.50184 25.8101 7.6785 25.814 8.79291 25.7853C8.826 25.7848 8.88726 25.7829 8.97486 25.7802L8.97502 25.7802C9.33307 25.7692 10.131 25.7447 11.2448 25.7447H16.2713H23.6679C23.6797 25.7441 23.6954 25.7455 23.7085 25.7447C24.7262 25.6814 25.6832 25.0849 26.4056 24.0284C27.137 22.9586 27.6171 21.4155 27.6315 19.7376C27.6468 18.0046 27.1292 16.4698 26.3646 15.3649C25.6627 14.3506 24.7604 13.7967 23.7902 13.6895C23.709 13.963 23.6183 14.2442 23.5292 14.5203L23.5292 14.5204L23.5292 14.5204C23.3736 15.0027 23.2228 15.4699 23.1363 15.8553C22.9441 16.7142 22.8569 17.2971 22.8226 17.5266L22.8225 17.5271C22.8167 17.5658 22.8124 17.5944 22.8094 17.6126C22.347 20.3393 19.9415 22.4347 17.0883 22.4347C15.8198 22.4347 14.5815 22.0186 13.5738 21.2495C13.384 21.1036 13.2865 20.8674 13.318 20.63C13.3496 20.3926 13.5054 20.1901 13.7267 20.0987C13.9481 20.0074 14.2013 20.041 14.3911 20.187C15.1711 20.7822 16.1063 21.127 17.0883 21.127C19.3091 21.127 21.1445 19.5145 21.5017 17.4082C21.5041 17.3938 21.6355 16.6122 21.8694 15.5693C22.1034 14.5264 22.4756 13.1555 22.9729 11.8097C23.4701 10.4638 24.0822 9.14568 24.9344 8.13182C25.7865 7.11784 26.9709 6.39887 28.3262 6.57894C28.4179 6.59129 28.5079 6.60415 28.5957 6.61669C28.9075 6.66125 29.1917 6.70186 29.4296 6.70186C29.7343 6.69663 29.8906 6.63386 30.0425 6.49747C30.5343 6.05652 30.607 5.3127 30.1654 4.82205C29.7237 4.3318 28.9826 4.29885 28.4899 4.74098C28.2252 4.94588 27.8485 4.91777 27.6171 4.67585C27.3857 4.43394 27.3744 4.05635 27.5909 3.80101L27.6314 3.76047ZM0.324629 28.1189C0.239026 28.2823 0.226467 28.4743 0.290051 28.6476C0.331852 28.7783 0.354941 28.9415 0.381253 29.1274C0.426554 29.4476 0.481412 29.8352 0.657774 30.2412C0.936182 30.8831 1.63397 31.4408 2.74197 31.6307C2.76803 31.646 2.79512 31.6596 2.82305 31.6712H27.4288C27.471 31.6618 27.5122 31.6482 27.5517 31.6307C28.3748 31.4956 28.9629 31.0136 29.2681 30.4047C29.5733 29.796 29.6664 29.1489 29.6767 28.4841C29.688 28.3037 29.6242 28.1267 29.5003 27.9951C29.3764 27.8635 29.2036 27.789 29.0229 27.7893H0.902705C0.875705 27.7876 0.848627 27.7876 0.821628 27.7893C0.794628 27.7876 0.76755 27.7876 0.740551 27.7893C0.560912 27.8357 0.410233 27.9554 0.324629 28.1189ZM28.218 29.3409C28.2266 29.2572 28.2352 29.1736 28.2468 29.097H1.71975C1.7294 29.15 1.73885 29.2104 1.74861 29.2728C1.77458 29.4387 1.80276 29.6188 1.84267 29.7101C1.97357 30.0119 2.11415 30.2214 2.94597 30.3639H27.3066C27.7998 30.2828 27.9753 30.1289 28.1239 29.8326C28.1784 29.7236 28.1982 29.5321 28.218 29.3409Z" fill="white"/>
</svg>
