<svg width="21" height="22" viewBox="0 0 21 22" fill="none" xmlns="http://www.w3.org/2000/svg">
<path d="M2.56065 0.939339C1.97487 0.353554 1.02512 0.353554 0.439339 0.939339C-0.146446 1.52512 -0.146446 2.47487 0.439339 3.06065L8.37868 11L0.439382 18.9393C-0.146403 19.5251 -0.146403 20.4748 0.439382 21.0606C1.02517 21.6464 1.97491 21.6464 2.5607 21.0606L10.5 13.1213L18.4393 21.0606C19.0251 21.6464 19.9748 21.6464 20.5606 21.0606C21.1464 20.4748 21.1464 19.5251 20.5606 18.9393L12.6213 11L20.5607 3.06066C21.1464 2.47487 21.1464 1.52513 20.5607 0.939341C19.9749 0.353556 19.0251 0.353556 18.4393 0.939341L10.5 8.87869L2.56065 0.939339Z" fill="black"/>
</svg>
