<svg width="20" height="20" viewBox="0 0 20 20" fill="none" xmlns="http://www.w3.org/2000/svg">
<path fill-rule="evenodd" clip-rule="evenodd" d="M18.6545 2.58182H13.7091V1.2C13.7091 0.545455 13.1636 0 12.5091 0H6.69091C6.03636 0 5.49091 0.545455 5.49091 1.2V2.58182H0.545455C0.254545 2.58182 0 2.83636 0 3.12727C0 3.41818 0.254545 3.67273 0.545455 3.67273H2L3.67273 16.9455C3.81818 18.5455 5.16364 19.8182 6.8 19.8182H12.4C14 19.8182 15.3818 18.5455 15.5273 16.9818L17.2 3.67273H18.6545C18.9455 3.67273 19.2 3.41818 19.2 3.12727C19.2 2.83636 18.9455 2.58182 18.6545 2.58182ZM6.58182 1.2C6.58182 1.12727 6.61818 1.09091 6.69091 1.09091H12.5091C12.5818 1.09091 12.6182 1.12727 12.6182 1.2V2.58182H6.58182V1.2ZM12.4 18.7273C13.4545 18.7273 14.3636 17.9273 14.4364 16.8727L16.0727 3.67273H3.09091L4.76364 16.8364C4.83636 17.8909 5.74545 18.7273 6.8 18.7273H12.4ZM5.81818 7.05455C5.81818 6.76364 6.03636 6.50909 6.32727 6.47273C6.61818 6.43636 6.87273 6.69091 6.90909 6.98182L7.56364 15.3818C7.56364 15.6727 7.34545 15.9273 7.05455 15.9636H7.01818C6.72727 15.9636 6.50909 15.7455 6.47273 15.4545L5.81818 7.05455ZM9.05455 7.01818C9.05455 6.72727 9.30909 6.47273 9.6 6.47273C9.89091 6.47273 10.1455 6.72727 10.1455 7.01818V15.4182C10.1455 15.7091 9.89091 15.9636 9.6 15.9636C9.30909 15.9636 9.05455 15.7091 9.05455 15.4182V7.01818ZM11.6364 15.3818L12.2909 6.98182C12.3273 6.69091 12.5818 6.43636 12.8727 6.47273C13.1636 6.50909 13.4182 6.76364 13.3818 7.05455L12.7273 15.4545C12.6909 15.7455 12.4727 15.9636 12.1818 15.9636H12.1455C11.8545 15.9273 11.6 15.6727 11.6364 15.3818Z" fill="#468378"/>
</svg>
