<svg width="22" height="34" viewBox="0 0 22 34" fill="none" xmlns="http://www.w3.org/2000/svg">
<path fill-rule="evenodd" clip-rule="evenodd" d="M11.7044 3.81301L11.7048 3.81301C12.6267 3.81301 13.3769 4.56324 13.3769 5.48514C13.3769 6.40705 12.6267 7.15727 11.7048 7.15727C10.7829 7.15727 10.0327 6.40705 10.0327 5.48514C10.0327 4.56339 10.7827 3.81326 11.7044 3.81301ZM12.3341 2.76991C12.5428 2.08408 13.1813 1.5835 13.9343 1.5835C14.242 1.5835 14.4917 1.3338 14.4917 1.02613C14.4917 0.718455 14.242 0.46875 13.9343 0.46875C12.572 0.46875 11.4348 1.45138 11.1943 2.74512C10.4301 2.88717 9.77444 3.3421 9.36574 3.97151L8.22199 3.39944C7.93327 3.25564 7.58937 3.27793 7.32517 3.45796C6.67583 3.89996 4.60684 5.53865 4.46639 8.50947C3.81537 8.95314 2.39573 10.2624 2.24301 13.3024C0.983894 13.435 0.000123567 14.5029 0.000123567 15.7966V16.0675C-0.00154856 16.1667 0.00458258 17.0557 0.638878 17.6984C0.8128 17.8748 1.01327 18.013 1.23907 18.1127L10.1064 33.6305C10.205 33.8044 10.3901 33.9114 10.5902 33.9114C10.7903 33.9114 10.9748 33.8044 11.074 33.6305L19.992 18.0239C20.0255 17.9654 20.0475 17.9024 20.0582 17.8378C21.1418 17.0595 21.2923 15.7064 21.1832 14.9427C21.1621 13.2132 19.9052 12.4825 18.9409 12.2617C18.8637 10.7093 18.4155 9.54081 17.8107 8.66311C17.7733 8.54337 17.6965 8.44095 17.5956 8.37099C16.5706 7.06673 15.2052 6.48511 14.388 6.23958C14.4555 5.99954 14.4917 5.74649 14.4917 5.48514C14.4917 4.16481 13.5688 3.05597 12.3341 2.76991ZM18.5478 18.3048H12.2625H2.6325L10.5902 32.2303L18.5478 18.3048ZM18.8729 17.1901C20.3254 16.7403 20.0869 15.1439 20.0757 15.0748C20.0707 15.0458 20.0685 15.0163 20.0685 14.9862C20.0685 13.6304 18.8628 13.3626 18.4791 13.3116L17.5277 13.7873C17.448 13.8268 17.3628 13.8458 17.2791 13.8458C17.0746 13.8458 16.8778 13.7332 16.7797 13.5376C16.6421 13.2622 16.7541 12.9278 17.0294 12.7896L17.8306 12.389C17.791 11.4355 17.5923 10.6547 17.3003 10.0157C16.2615 11.07 14.0262 11.5126 13.4717 11.6079C13.4399 11.6135 13.4076 11.6163 13.3764 11.6163C13.11 11.6163 12.8748 11.4251 12.8279 11.1537C12.7755 10.8505 12.979 10.5623 13.2822 10.5099C14.605 10.2797 16.3962 9.65195 16.682 9.00395C15.7351 7.81349 14.4583 7.38486 13.8656 7.24337C13.3541 7.87072 12.5755 8.27203 11.7048 8.27203C10.1681 8.27203 8.91793 7.02183 8.91793 5.48514C8.91793 5.32461 8.93158 5.16721 8.95777 5.01403L7.84298 4.45623C7.23944 4.89422 5.81895 6.14065 5.60191 8.27203H7.2458C7.55347 8.27203 7.80318 8.52173 7.80318 8.82941C7.80318 9.13708 7.55347 9.38678 7.2458 9.38678H5.15752C4.81045 9.59854 3.57706 10.5247 3.37306 13.0987L10.4371 11.0804C10.733 10.9962 11.0418 11.1673 11.126 11.4633C11.2107 11.7593 11.039 12.0675 10.7431 12.1522L2.9644 14.3747C2.90208 14.3958 2.83613 14.4059 2.76999 14.4032L2.75502 14.4026L2.75323 14.4025C2.73933 14.4022 2.70229 14.4013 2.65268 14.4032H2.50832C1.7397 14.4032 1.11488 15.0286 1.11488 15.7966V16.0753C1.11544 16.3395 1.19737 17.1901 2.22963 17.1901H12.0604L15.2495 14.5325C15.4863 14.3346 15.8369 14.3675 16.0348 14.6038C16.2316 14.8402 16.1998 15.1919 15.9635 15.3886L13.8017 17.1901H18.8729Z" fill="#96979B"/>
</svg>
