<svg width="20" height="34" viewBox="0 0 20 34" fill="none" xmlns="http://www.w3.org/2000/svg">
<path fill-rule="evenodd" clip-rule="evenodd" d="M19.094 5.5568C19.0306 5.27143 18.7769 5.08119 18.4916 5.08119H10.6721L10.6086 5.1446V2.9568L14.3501 1.68851L15.7135 1.2129C16.0306 1.08607 16.2208 0.737288 16.094 0.420215C15.9672 0.103142 15.6184 -0.0871024 15.3013 0.0397269L9.78425 1.94217C9.53059 2.03729 9.34035 2.25924 9.34035 2.54461V5.1446H1.45742C1.17206 5.1446 0.9184 5.33485 0.854985 5.62021L0.220839 9.87143C0.157424 10.0617 0.220839 10.2519 0.315961 10.4105C0.411083 10.569 0.633034 10.6641 0.823278 10.6641H0.854985L3.83791 33.2788C3.86962 33.6275 4.12328 33.8812 4.47206 33.8812H15.4769C15.8257 33.8812 16.0794 33.6275 16.1111 33.2788L19.094 10.6641H19.1257C19.316 10.6641 19.5062 10.569 19.633 10.4105C19.7599 10.2519 19.7916 10.0617 19.7282 9.87143L19.094 5.5568ZM5.0745 32.5812L2.12328 10.6324H17.8257L14.8745 32.5812H5.0745ZM18.016 6.38119H1.93303L1.64767 9.36412H18.3013L18.016 6.38119Z" fill="white"/>
</svg>
