<svg width="32" height="32" viewBox="0 0 32 32" fill="none" xmlns="http://www.w3.org/2000/svg">
<path fill-rule="evenodd" clip-rule="evenodd" d="M8.18433 0.694851C8.33801 0.528358 8.4917 0.387479 8.74784 0.361865C9.05521 0.349058 9.37539 0.566779 9.46504 0.861343C9.77241 1.75784 10.3359 2.33416 11.3605 3.01294C14.2933 2.41101 19.1749 2.42381 22.4151 2.92329C28.9468 4.43453 32.8273 10.6332 31.3161 18.1126C31.2393 18.4327 30.9319 18.6889 30.6117 18.6889H29.395L29.1389 19.9056C29.0877 20.2001 28.8315 20.4306 28.5369 20.4691C25.1943 21.0326 22.2999 20.9045 19.6872 19.7775C17.0746 18.6505 12.7821 16.5629 10.5793 13.3611C9.9261 12.375 9.11925 11.9267 8.46608 11.8114C7.7745 11.6962 7.07011 11.8627 6.37852 12.2981C5.00816 13.169 3.8299 15.1029 3.68902 16.8446C3.61218 17.8052 3.8299 20.6761 4.40622 21.3677C4.98254 22.0592 5.9815 22.6356 7.62081 22.8405C8.09468 22.8917 8.40205 23.4936 8.17152 23.9035L6.5194 26.8363L7.97941 30.2814C8.09468 30.5504 8.01783 30.909 7.7873 31.1139C7.55678 31.306 7.19818 31.3316 6.94203 31.1779C2.20339 28.3603 -0.165925 21.2375 0.0133746 16.2427C0.141446 12.2981 1.87041 8.41755 5.27711 5.79209C5.8022 5.39507 6.37852 5.02366 6.98046 4.67787C7.04449 3.24347 7.42871 1.82188 8.18433 0.694851ZM9.61872 3.49961C9.33697 3.25628 9.08083 2.98733 8.8631 2.70557C8.72223 3.08978 8.60696 3.49961 8.53012 3.92225L8.61807 3.88638L8.61809 3.88637L8.61815 3.88635C8.93857 3.75563 9.27865 3.61688 9.61872 3.49961ZM22.1334 4.33208C27.7685 5.66402 31.0471 10.6844 29.9713 17.2417H28.7931C28.4601 17.2417 28.1527 17.4978 28.0759 17.818L27.8197 19.1115C25.8859 19.3933 24.1825 19.4189 22.6201 19.1371C21.9541 17.4594 21.7492 16.2683 21.9285 15.3206C22.1206 14.3601 22.7097 13.5148 23.9136 12.4774L22.9658 11.3888C21.6467 12.5286 20.7886 13.6685 20.5197 15.0516C20.302 16.1531 20.4685 17.3313 20.9295 18.7145C20.7509 18.6549 20.5722 18.58 20.3995 18.5076L20.3995 18.5076C20.3493 18.4865 20.2997 18.4657 20.2507 18.4455C17.9454 17.4594 13.8835 15.6024 11.7575 12.5415C10.9122 11.4016 9.82364 10.6076 8.72223 10.3899C7.62081 10.1977 6.53221 10.4923 5.61009 11.0814C3.76586 12.2469 2.43392 14.4753 2.24182 16.7294C2.15217 17.9845 2.44673 21.2652 3.292 22.2898C3.98359 23.1222 5.03377 23.737 6.41694 24.07L5.085 26.4393C4.98254 26.6314 4.96974 26.8747 5.04658 27.0668L5.58448 28.3091C2.7541 25.6837 1.33251 19.9696 1.46058 16.2939C1.57584 12.7464 3.1127 9.28844 6.1608 6.93192C10.861 3.69172 17.0105 3.55084 22.1334 4.33208ZM25.9627 12.6567C25.9627 12.0676 26.4494 11.5809 27.0513 11.5809C27.6533 11.5809 28.1399 12.0676 28.1399 12.6567C28.1399 13.2586 27.6533 13.7453 27.0513 13.7453C26.4494 13.7453 25.9627 13.2586 25.9627 12.6567Z" fill="white"/>
</svg>
