<svg width="33" height="31" viewBox="0 0 33 31" fill="none" xmlns="http://www.w3.org/2000/svg">
<path fill-rule="evenodd" clip-rule="evenodd" d="M8.86401 0.333522C9.0177 0.16703 9.17138 0.0261512 9.42753 0.000536971C9.7349 -0.0122702 10.0551 0.205451 10.1447 0.500015C10.4521 1.39651 11.0156 1.97284 12.0402 2.65161C14.973 2.04968 19.8546 2.06249 23.0948 2.56196C29.6265 4.07321 33.507 10.2719 31.9958 17.7512C31.9189 18.0714 31.6116 18.3275 31.2914 18.3275H30.0747L29.8186 19.5442C29.7673 19.8388 29.5112 20.0693 29.2166 20.1077C25.874 20.6713 22.9796 20.5432 20.3669 19.4162C17.7543 18.2891 13.4618 16.2016 11.2589 12.9998C10.6058 12.0136 9.79893 11.5654 9.14577 11.4501C8.45419 11.3349 7.74979 11.5013 7.05821 11.9368C5.68784 12.8077 4.50959 14.7415 4.36871 16.4833C4.29187 17.4439 4.50959 20.3147 5.08591 21.0063C5.66223 21.6979 6.66119 22.2742 8.3005 22.4791C8.77436 22.5304 9.08173 23.1323 8.85121 23.5421L7.19909 26.475L8.6591 29.9201C8.77436 30.189 8.69752 30.5476 8.46699 30.7526C8.23646 30.9447 7.87786 30.9703 7.62172 30.8166C2.88308 27.999 0.513762 20.8762 0.693062 15.8814C0.821133 11.9368 2.5501 8.05622 5.95679 5.43076C6.48189 5.03374 7.05821 4.66233 7.66014 4.31654C7.72418 2.88214 8.10839 1.46055 8.86401 0.333522ZM10.2984 3.13828C10.0167 2.89495 9.76051 2.626 9.54279 2.34424C9.40191 2.72846 9.28665 3.13828 9.20981 3.56092L9.29776 3.52505L9.29778 3.52504L9.29784 3.52502C9.61825 3.3943 9.95833 3.25555 10.2984 3.13828ZM22.8131 3.97075C28.4482 5.30269 31.7268 10.3231 30.651 16.8803H29.4728C29.1398 16.8803 28.8324 17.1365 28.7556 17.4567L28.4994 18.7502C26.5656 19.0319 24.8622 19.0576 23.2997 18.7758C22.6338 17.0981 22.4289 15.907 22.6082 14.9593C22.8003 13.9987 23.3894 13.1535 24.5933 12.1161L23.6455 11.0275C22.3264 12.1673 21.4683 13.3072 21.1994 14.6903C20.9816 15.7917 21.1481 16.97 21.6092 18.3532C21.4305 18.2936 21.2519 18.2187 21.0792 18.1462L21.0792 18.1462C21.029 18.1252 20.9794 18.1044 20.9304 18.0842C18.6251 17.0981 14.5632 15.241 12.4372 12.1801C11.5919 11.0403 10.5033 10.2462 9.40191 10.0285C8.3005 9.83642 7.21189 10.131 6.28978 10.7201C4.44555 11.8856 3.11361 14.114 2.9215 16.3681C2.83185 17.6232 3.12642 20.9039 3.97169 21.9284C4.66327 22.7609 5.71346 23.3756 7.09663 23.7086L5.76469 26.078C5.66223 26.2701 5.64942 26.5134 5.72627 26.7055L6.26417 27.9478C3.43379 25.3223 2.0122 19.6083 2.14027 15.9326C2.25553 12.385 3.79239 8.92711 6.84049 6.5706C11.5407 3.33039 17.6902 3.18951 22.8131 3.97075ZM26.6424 12.2954C26.6424 11.7063 27.1291 11.2196 27.731 11.2196C28.3329 11.2196 28.8196 11.7063 28.8196 12.2954C28.8196 12.8973 28.3329 13.384 27.731 13.384C27.1291 13.384 26.6424 12.8973 26.6424 12.2954Z" fill="#FCC2BD"/>
</svg>
