<svg width="34" height="31" viewBox="0 0 34 31" fill="none" xmlns="http://www.w3.org/2000/svg">
<path fill-rule="evenodd" clip-rule="evenodd" d="M19.3868 0.290144C19.6626 0.290176 19.9176 0.437283 20.0557 0.676121C20.1937 0.914958 20.194 1.20929 20.0564 1.44839L19.0091 3.26742L18.0654 4.90163V6.53065C26.9491 7.08207 34 14.4894 34 23.5309C34 24.6124 33.8989 25.673 33.7015 26.7011C33.6316 27.065 33.3133 27.3281 32.9427 27.3281H1.05732C0.685213 27.3281 0.365979 27.0628 0.29777 26.697C0.1071 25.6743 0 24.6151 0 23.5309C0 14.2937 7.36081 6.75814 16.5201 6.50152V4.90367L16.4212 4.73418L16.4174 4.73031L15.5741 3.26646V3.26634L14.5268 1.4473C14.3892 1.20821 14.3895 0.913876 14.5276 0.675039C14.6656 0.436202 14.9206 0.289094 15.1965 0.289062H17.2909H19.3855L19.3868 0.290144ZM18.0504 1.83548H17.2922H16.5341L16.9145 2.49628V2.4964L17.2916 3.15117L17.6697 2.4964L18.0498 1.83633L18.0504 1.83548ZM17.0022 8.04071C8.45704 8.04071 1.54484 14.9662 1.54484 23.5317C1.54484 24.2949 1.60364 25.047 1.71163 25.7836H32.2896C32.3983 25.0495 32.4543 24.2973 32.4543 23.5317C32.4543 15.0988 25.7527 8.26017 17.3981 8.04879C17.3216 8.05901 17.244 8.05771 17.1678 8.04493C17.0763 8.04489 17.0197 8.04078 17.0056 8.03975L17.0022 8.03952V8.04071ZM32.867 29.3517C33.1453 29.3482 33.404 29.4947 33.5442 29.7352C33.6844 29.9757 33.6844 30.273 33.5442 30.5135C33.404 30.754 33.1453 30.9005 32.867 30.897H1.13208C0.853745 30.9005 0.595054 30.754 0.454875 30.5135C0.314696 30.273 0.314696 29.9757 0.454875 29.7352C0.595054 29.4947 0.853745 29.3482 1.13208 29.3517H32.867ZM26.1258 14.0037C23.7215 11.4862 20.8302 9.84036 18.4043 9.8052H18.4041C18.1263 9.79844 17.8662 9.9414 17.723 10.1796C17.5798 10.4178 17.5756 10.7146 17.7119 10.9568C17.8483 11.1989 18.1042 11.3493 18.3821 11.3504C20.0648 11.3747 22.8153 12.7747 25.0082 15.0711C27.2012 17.3675 28.8669 20.4891 28.8344 23.7933C28.8277 24.0719 28.9715 24.3326 29.2109 24.4755C29.4502 24.6184 29.7479 24.6213 29.99 24.4831C30.2321 24.3449 30.381 24.0871 30.3797 23.8083C30.4171 19.9817 28.5301 16.5214 26.1258 14.0037Z" fill="white"/>
</svg>
