<svg width="34" height="31" viewBox="0 0 34 31" fill="none" xmlns="http://www.w3.org/2000/svg">
<path fill-rule="evenodd" clip-rule="evenodd" d="M19.3868 0.00108182C19.6626 0.00111319 19.9176 0.148221 20.0557 0.387058C20.1937 0.625896 20.194 0.92023 20.0564 1.15932L19.0091 2.97836L18.0654 4.61256V6.24159C26.9491 6.79301 34 14.2004 34 23.2418C34 24.3233 33.8989 25.384 33.7015 26.4121C33.6316 26.776 33.3133 27.039 32.9427 27.039H1.05732C0.685213 27.039 0.365979 26.7738 0.29777 26.408C0.1071 25.3852 0 24.326 0 23.2418C0 14.0046 7.36081 6.46908 16.5201 6.21246V4.61461L16.4212 4.44511L16.4174 4.44125L15.5741 2.9774V2.97728L14.5268 1.15824C14.3892 0.919148 14.3895 0.624814 14.5276 0.385976C14.6656 0.147139 14.9206 3.13687e-05 15.1965 0H17.2909H19.3855L19.3868 0.00108182ZM18.0504 1.54642H17.2922H16.5341L16.9145 2.20722V2.20733L17.2916 2.8621L17.6697 2.20733L18.0498 1.54727L18.0504 1.54642ZM17.0022 7.75165C8.45704 7.75165 1.54484 14.6772 1.54484 23.2427C1.54484 24.0058 1.60364 24.758 1.71163 25.4946H32.2896C32.3983 24.7604 32.4543 24.0083 32.4543 23.2427C32.4543 14.8098 25.7527 7.97111 17.3981 7.75973C17.3216 7.76995 17.244 7.76865 17.1678 7.75586C17.0763 7.75583 17.0197 7.75171 17.0056 7.75069L17.0022 7.75045V7.75165ZM32.867 29.0626C33.1453 29.0592 33.404 29.2057 33.5442 29.4462C33.6844 29.6866 33.6844 29.9839 33.5442 30.2244C33.404 30.4649 33.1453 30.6114 32.867 30.608H1.13208C0.853745 30.6114 0.595054 30.4649 0.454875 30.2244C0.314696 29.9839 0.314696 29.6866 0.454875 29.4462C0.595054 29.2057 0.853745 29.0592 1.13208 29.0626H32.867ZM26.1258 13.7147C23.7215 11.1971 20.8302 9.5513 18.4043 9.51614H18.4041C18.1263 9.50937 17.8662 9.65234 17.723 9.89055C17.5798 10.1288 17.5756 10.4255 17.7119 10.6677C17.8483 10.9099 18.1042 11.0602 18.3821 11.0614C20.0648 11.0856 22.8153 12.4856 25.0082 14.782C27.2012 17.0784 28.8669 20.2 28.8344 23.5042C28.8277 23.7829 28.9715 24.0436 29.2109 24.1864C29.4502 24.3293 29.7479 24.3322 29.99 24.194C30.2321 24.0558 30.381 23.798 30.3797 23.5193C30.4171 19.6926 28.5301 16.2323 26.1258 13.7147Z" fill="#96979B"/>
</svg>
