<svg width="22" height="24" viewBox="0 0 22 24" fill="none" xmlns="http://www.w3.org/2000/svg">
<path fill-rule="evenodd" clip-rule="evenodd" d="M18.9474 12.3067C20.4903 11.0324 21.4737 9.10467 21.4737 6.94737C21.4737 3.11057 18.3631 0 14.5263 0C12.369 0 10.4413 0.983382 9.16703 2.52632H0V20.2105H2.52632V24L4.42105 22.1053L6.31579 24V20.2105H18.9474V12.3067ZM17.6842 13.1372C16.7367 13.6215 15.6634 13.8947 14.5263 13.8947C12.8468 13.8947 11.3065 13.2987 10.1053 12.3067V18.9474H17.6842V13.1372ZM8.8421 10.9427C8.04628 9.81262 7.57895 8.43455 7.57895 6.94737C7.57895 5.81026 7.85216 4.73694 8.33653 3.78947H1.26316V18.9474H8.8421V10.9427ZM7.57895 16.4211H2.52632V15.1579H7.57895V16.4211ZM2.52632 12.6316H7.57895V11.3684H2.52632V12.6316ZM6.31579 8.84211H2.52632V7.57895H6.31579V8.84211ZM11.3684 16.4211H16.4211V15.1579H11.3684V16.4211ZM20.2105 6.94737C20.2105 3.80819 17.6655 1.26316 14.5263 1.26316C11.3871 1.26316 8.8421 3.80819 8.8421 6.94737C8.8421 10.0865 11.3871 12.6316 14.5263 12.6316C17.6655 12.6316 20.2105 10.0865 20.2105 6.94737ZM15.1579 2.52632V6.90947L18.1315 9.02244L17.4443 10.0822L13.9023 7.60042L13.9099 7.57895H13.8947V2.52632H15.1579Z" fill="#474A52"/>
</svg>
