<svg width="24" height="25" viewBox="0 0 24 25" fill="none" xmlns="http://www.w3.org/2000/svg">
<path fill-rule="evenodd" clip-rule="evenodd" d="M6.5 0H23.5C23.7761 0 24 0.223858 24 0.5V21.5C23.9975 23.432 22.432 24.9975 20.5 25H3.5C1.56803 24.9975 0.00247918 23.432 0 21.5V7.5C0 7.22386 0.223858 7 0.5 7H6V0.5C6 0.223858 6.22386 0 6.5 0ZM1 8V21.5C1.00248 22.8797 2.12032 23.9975 3.5 24C4.88003 23.9983 5.99835 22.88 6 21.5V8H4V22H3V8H1ZM23 21.5C22.9983 22.88 21.88 23.9983 20.5 24H5.95L5.95431 23.9951C5.95741 23.9916 5.96059 23.9879 5.964 23.9845C5.99012 23.9587 6.015 23.9312 6.03986 23.9037L6.03987 23.9037C6.04649 23.8964 6.0531 23.8891 6.05973 23.8818C6.06348 23.8777 6.06723 23.8736 6.071 23.8695L6.10078 23.8376C6.13063 23.8057 6.16414 23.7699 6.193 23.7355C6.21796 23.7057 6.23636 23.6805 6.25464 23.6554C6.26492 23.6413 6.27516 23.6273 6.2865 23.6125C6.29302 23.6037 6.29959 23.595 6.30618 23.5863C6.31152 23.5793 6.31688 23.5722 6.32224 23.5652C6.34773 23.5319 6.37317 23.4986 6.397 23.4625C6.41559 23.4348 6.4329 23.406 6.45018 23.3773C6.4594 23.3619 6.46861 23.3466 6.478 23.3315C6.48753 23.316 6.49719 23.3005 6.50684 23.2851L6.50686 23.2851C6.53011 23.248 6.5533 23.211 6.5745 23.1725C6.59117 23.1422 6.60606 23.1105 6.62095 23.0788C6.62839 23.063 6.63583 23.0472 6.6435 23.0315C6.65098 23.0163 6.65861 23.0011 6.66625 22.9859L6.66631 22.9858L6.66632 22.9858C6.68623 22.9463 6.70617 22.9067 6.7235 22.8655C6.73921 22.8282 6.75084 22.7954 6.76248 22.7626C6.76862 22.7453 6.77476 22.728 6.7815 22.71L6.79763 22.6678C6.81318 22.6275 6.82961 22.585 6.8425 22.543C6.85545 22.5008 6.86649 22.4561 6.87744 22.4119L6.889 22.3655C6.89443 22.3441 6.89986 22.3244 6.9051 22.3054L6.9051 22.3054L6.90511 22.3054C6.91434 22.2718 6.92298 22.2404 6.93 22.206C6.9409 22.1534 6.94841 22.0996 6.95593 22.0458L6.95594 22.0457L6.9635 21.9925C6.96596 21.9753 6.96885 21.9583 6.97174 21.9413L6.97174 21.9412C6.97648 21.9134 6.9812 21.8856 6.984 21.857C6.99532 21.7383 7.00066 21.6192 7 21.5V1H23V21.5ZM19.5 16C19.7681 16.0002 19.9887 15.7889 20 15.521L20.5 7.521C20.5057 7.38479 20.4556 7.25215 20.3612 7.15379C20.2668 7.05543 20.1363 6.99988 20 7H18V6.5C17.9983 5.11997 16.88 4.00165 15.5 4C14.12 4.00165 13.0017 5.11997 13 6.5V7H11C10.8637 6.99988 10.7332 7.05543 10.6388 7.15379C10.5444 7.25215 10.4943 7.38479 10.5 7.521L11 15.521C11.0113 15.7889 11.2319 16.0002 11.5 16H19.5ZM14 6.5C14 5.67157 14.6716 5 15.5 5C16.3284 5 17 5.67157 17 6.5V7H14V6.5ZM13 10.5V8H11.5215L11.9795 15H19.0205L19.4785 8H18V10.5H17V8H14V10.5H13ZM9 18H10H21V19H10H9V18ZM21 20H9V21H21V20Z" fill="#F85E61"/>
</svg>
