<svg width="32" height="33" viewBox="0 0 32 33" fill="none" xmlns="http://www.w3.org/2000/svg">
<path fill-rule="evenodd" clip-rule="evenodd" d="M17.4834 10.6555C18.4877 10.3639 19.5479 10.2044 20.6452 10.2044C26.9063 10.2044 32 15.2981 32 21.5592C32 27.8204 26.9063 32.9141 20.6452 32.9141C19.0034 32.9141 17.4436 32.561 16.033 31.9314L15.9659 32.9141H2.61471L1.06632 10.2044H0V6.07535H7.74194V0.914062H10.8387V6.07535H18.5806V10.2044H17.5143L17.4834 10.6555ZM29.8828 26.1383C30.5708 24.7561 30.9677 23.2046 30.9677 21.5592C30.9677 15.8674 26.337 11.2366 20.6452 11.2366C15.0694 11.2366 10.5234 15.6836 10.3401 21.2155C10.4268 21.9876 11.0761 22.5915 11.871 22.5915C12.7246 22.5915 13.4194 21.8968 13.4194 21.0431V20.2689C13.4194 19.2728 14.2297 18.4624 15.2258 18.4624C15.6165 18.4624 15.984 18.5858 16.287 18.8062C17.2026 17.3615 18.8119 16.3979 20.6452 16.3979C23.4911 16.3979 25.8065 18.7133 25.8065 21.5592C25.8065 23.2428 24.9925 24.7355 23.7419 25.6784V26.7205C23.7419 27.2898 24.2049 27.7528 24.7742 27.7528C25.3435 27.7528 25.8065 27.2898 25.8065 26.7205V25.4302C25.8065 24.4341 26.6168 23.6237 27.6129 23.6237C28.609 23.6237 29.4194 24.4341 29.4194 25.4302C29.4194 25.7466 29.6103 26.0181 29.8828 26.1383ZM20.6452 17.4302C22.9218 17.4302 24.7742 19.2826 24.7742 21.5592C24.7742 23.8359 22.9218 25.6883 20.6452 25.6883C18.3685 25.6883 16.5161 23.8359 16.5161 21.5592C16.5161 19.2826 18.3685 17.4302 20.6452 17.4302ZM9.34983 23.1044C9.3657 23.1032 9.38158 23.1019 9.39768 23.1014C9.32903 22.5966 9.29032 22.0826 9.29032 21.5592C9.29032 21.4418 9.29442 21.3252 9.29849 21.2089V21.2089V21.2089V21.2089V21.2089V21.2089L9.2985 21.2088L9.30065 21.1468C9.30016 21.1304 9.29785 21.1143 9.29554 21.0983L9.29554 21.0983C9.29293 21.0801 9.29032 21.062 9.29032 21.0431H9.30323C9.39045 19.1066 9.9649 17.2944 10.9068 15.7275C10.4031 15.4947 9.85755 15.3657 9.29032 15.3657C7.15561 15.3657 5.41935 17.1019 5.41935 19.2366C5.41935 21.3714 7.15561 23.1076 9.29032 23.1076C9.31036 23.1076 9.33008 23.106 9.34983 23.1044ZM8.77419 1.94632H9.80645V6.07535H8.77419V1.94632ZM17.5484 7.10761H1.03226V9.17213H17.5484V7.10761ZM16.48 10.2044L16.4243 11.0214C15.6077 11.3497 14.8387 11.7693 14.1285 12.2689H2.24155L2.10065 10.2044H16.48ZM3.57884 31.8818H15.0018L15.0328 31.424C12.9497 30.2343 11.279 28.4052 10.288 26.2044H5.16129V25.1721H9.88284C9.76723 24.8294 9.66813 24.4795 9.58555 24.1228C9.553 24.1247 9.52057 24.1272 9.4881 24.1297L9.48804 24.1297C9.4227 24.1348 9.3572 24.1399 9.29032 24.1399C6.58684 24.1399 4.3871 21.9401 4.3871 19.2366C4.3871 16.5332 6.58684 14.3334 9.29032 14.3334C10.064 14.3334 10.8114 14.512 11.489 14.8537C11.8994 14.2947 12.3603 13.776 12.8635 13.3012H2.31174L3.12155 25.1721H4.12903V26.2044H3.19174L3.57884 31.8818ZM20.6452 31.8818C15.5138 31.8818 11.2573 28.1141 10.4661 23.2026C10.8712 23.4668 11.3523 23.6237 11.871 23.6237C13.2939 23.6237 14.4516 22.4661 14.4516 21.0431V20.2689C14.4516 19.8421 14.799 19.4947 15.2258 19.4947C15.456 19.4947 15.664 19.5984 15.8101 19.7698C15.6026 20.3283 15.4839 20.9295 15.4839 21.5592C15.4839 24.4052 17.7992 26.7205 20.6452 26.7205C21.3791 26.7205 22.0769 26.5641 22.7097 26.2864V26.7205C22.7097 27.8591 23.6356 28.785 24.7742 28.785C25.9128 28.785 26.8387 27.8591 26.8387 26.7205V25.4302C26.8387 25.0034 27.1861 24.656 27.6129 24.656C28.0397 24.656 28.3871 25.0034 28.3871 25.4302C28.3871 26.1321 28.7938 26.7355 29.3801 27.0343C27.552 29.9401 24.3246 31.8818 20.6452 31.8818ZM21.6774 12.2689H20.6452V13.3012H21.6774V12.2689ZM18.5806 13.3012H17.5484V14.3334H18.5806V13.3012ZM13.9355 14.8495H14.9677V15.8818H13.9355V14.8495ZM17.0323 15.8818H16V16.9141H17.0323V15.8818ZM23.7419 13.3012H24.7742V14.3334H23.7419V13.3012ZM26.8387 15.8818H25.8065V16.9141H26.8387V15.8818ZM28.3871 18.4624H29.4194V19.4947H28.3871V18.4624ZM21.6774 14.8495H22.7097V15.8818H21.6774V14.8495ZM27.3548 20.527H26.3226V21.5592H27.3548V20.527Z" fill="white"/>
</svg>
