<svg width="32" height="29" viewBox="0 0 32 29" fill="none" xmlns="http://www.w3.org/2000/svg">
<path fill-rule="evenodd" clip-rule="evenodd" d="M15.3471 8.40542C15.1243 8.22284 15.0917 7.89404 15.2745 7.67121C15.32 7.61431 16.4175 6.21435 15.2707 4.78092C13.9066 3.07644 14.6963 1.44804 15.3047 0.825082C15.5065 0.6189 15.8363 0.615333 16.0425 0.816251C16.248 1.01683 16.2527 1.34563 16.0533 1.55198C15.9382 1.67342 14.9854 2.75443 16.0853 4.12909C17.43 5.80963 16.6709 7.61347 16.0815 8.33255C15.9783 8.4584 15.8288 8.52362 15.6776 8.52362C15.5615 8.52362 15.4443 8.4849 15.3471 8.40542ZM31.3594 20.7283C31.3594 19.0982 29.1743 17.7014 25.2062 16.7952C25.1535 16.7828 25.1013 16.7816 25.05 16.7854C23.9359 15.1473 22.2151 13.8698 19.8109 13.735C19.7448 13.6067 19.6738 13.4815 19.5924 13.3633C18.966 12.4529 17.9738 11.9795 16.6489 11.9453C16.013 11.4186 15.0964 11.0207 13.7721 11.0207C11.6823 11.0207 10.74 12.5162 10.4601 13.0763C8.96601 13.7413 7.62464 15.0181 6.61394 16.6941C4.07301 17.2318 0 18.449 0 20.7283C0 22.0672 1.43916 23.1451 3.66979 23.9454C3.99811 24.7826 5.99943 28.4341 15.9168 28.4341C25.7068 28.4341 27.4236 24.866 27.7043 23.9402C29.9266 23.1404 31.3594 22.0643 31.3594 20.7283ZM11.3967 13.8285C12.3321 13.527 13.2071 13.5726 13.9194 13.9406C12.172 14.288 9.02679 15.5715 7.81963 20.2894C7.7483 20.5686 7.91644 20.8529 8.19565 20.9243C8.23913 20.9355 8.28261 20.9406 8.32541 20.9406C8.55808 20.9406 8.77004 20.784 8.8305 20.5482C10.1355 15.4478 13.8209 14.9097 14.8342 14.8591C15.0004 15.2595 15.0199 15.732 14.9423 16.2335C13.8453 16.1773 11.6515 16.6095 10.4562 20.5877C10.3733 20.8635 10.5296 21.1546 10.8057 21.2374C10.8556 21.2524 10.9062 21.2595 10.9562 21.2595C11.1804 21.2595 11.3876 21.1138 11.4555 20.8879C12.3597 17.8789 13.7775 17.3008 14.6729 17.2702C14.0739 18.9735 12.828 20.6464 12.8064 20.6746C12.6315 20.9032 12.6749 21.2307 12.9039 21.4059C12.9983 21.4783 13.1101 21.5133 13.2204 21.5133C13.3774 21.5133 13.5323 21.4429 13.6352 21.3088C13.8101 21.0798 17.894 15.677 14.9905 13.3879C14.2004 12.765 13.2212 12.499 12.1608 12.6048C12.5389 12.3084 13.063 12.0642 13.7721 12.0642C15.18 12.0642 16.1664 12.6021 16.7035 13.6631C17.6128 15.4589 17.0591 18.5014 15.4158 20.7395C15.2452 20.9718 15.2952 21.2982 15.5275 21.4688C15.6206 21.537 15.7286 21.57 15.8359 21.57C15.9963 21.57 16.1546 21.4963 16.2568 21.357C18.1471 18.7826 18.7266 15.3485 17.6345 13.1916C17.6294 13.1815 17.6238 13.1712 17.6181 13.161L17.6084 13.1431L17.6055 13.1376C18.0876 13.2919 18.4617 13.5611 18.7323 13.9542C19.9202 15.6787 18.8937 19.429 18.3978 20.7286C18.2952 20.9976 18.43 21.2993 18.699 21.4022C18.7602 21.4253 18.8234 21.4365 18.8852 21.4365C19.0951 21.4365 19.2931 21.3088 19.3726 21.1012C19.4086 21.0069 19.8016 19.9613 20.0725 18.608C20.4904 18.8877 21.0713 19.4925 21.3176 20.7667C21.3658 21.0163 21.5842 21.1896 21.8291 21.1896C21.8621 21.1896 21.8954 21.1865 21.9287 21.18C22.2116 21.1254 22.3967 20.8516 22.3421 20.569C21.9586 18.5847 20.8638 17.8065 20.2487 17.5182C20.2809 17.2508 20.3039 16.9788 20.3169 16.7057C21.024 16.7698 22.6792 17.2638 23.3512 20.3832C23.4042 20.6277 23.6202 20.7948 23.8607 20.7948C23.8974 20.7948 23.9344 20.7911 23.9715 20.7833C24.2531 20.7225 24.4321 20.445 24.3716 20.1631C23.5449 16.3283 21.2916 15.7386 20.3074 15.6687C20.2861 15.3773 20.2467 15.0913 20.1872 14.8144C21.608 15.0143 24.3319 15.9398 25.3652 20.018C25.4249 20.2544 25.6376 20.4117 25.8706 20.4117C25.913 20.4117 25.9562 20.4066 25.999 20.3957C26.2785 20.3251 26.4474 20.0411 26.3767 19.7619C26.3713 19.7407 26.365 19.7193 26.3587 19.698L26.3587 19.6979L26.3586 19.6978C26.3534 19.68 26.3481 19.6621 26.3433 19.6443C27.0702 19.9262 27.2397 20.1455 27.2719 20.1871L27.2719 20.1872C27.2756 20.1919 27.2775 20.1943 27.2782 20.1943C27.0853 20.8271 23.0302 22.0068 15.9589 22.0068C8.88485 22.0068 4.82948 20.8264 4.63927 20.216C4.64001 20.2135 4.71501 20.0295 5.27978 19.769C5.27789 19.7755 5.27582 19.7818 5.27374 19.7882L5.27374 19.7883L5.2737 19.7884L5.2737 19.7884L5.27368 19.7884C5.27149 19.7952 5.2693 19.8019 5.26732 19.8088C5.18818 20.0856 5.34817 20.3747 5.62534 20.4542C5.90149 20.533 6.1909 20.373 6.27072 20.0961C7.34477 16.3478 9.62296 14.4007 11.3967 13.8285ZM5.21915 24.4248C6.2587 25.5694 8.99953 27.3906 15.9168 27.3906C22.95 27.3906 25.4344 25.5061 26.2905 24.3851C23.3303 25.1964 19.4471 25.6179 15.6797 25.6179C11.9752 25.6179 8.15999 25.2097 5.21915 24.4248ZM15.6797 24.5744C7.05435 24.5744 1.04348 22.5476 1.04348 20.7283C1.04348 19.9564 2.36122 18.7962 5.96845 17.9127C5.88215 18.1008 5.80012 18.2927 5.72172 18.4877C4.79592 18.781 3.59715 19.2762 3.59715 20.2048C3.59715 22.4511 11.3675 23.0503 15.9589 23.0503C20.5503 23.0503 28.3207 22.4511 28.3207 20.2048C28.3207 19.2351 27.0078 18.7293 26.0204 18.4334C25.9887 18.424 25.9569 18.4185 25.9252 18.4152C25.8676 18.2763 25.8072 18.1383 25.7425 18.001C29.0986 18.8792 30.3159 19.9993 30.3159 20.7283C30.3159 22.5476 24.305 24.5744 15.6797 24.5744ZM10.0391 8.49186C9.85632 8.71486 9.88893 9.04349 10.1121 9.22607C10.2089 9.30555 10.3261 9.34427 10.4423 9.34427C10.5934 9.34427 10.7432 9.27906 10.8461 9.15321C11.2425 8.66934 11.7534 7.45586 10.8499 6.32644C10.3013 5.64064 10.7269 5.11516 10.8196 5.01496C11.0173 4.80844 11.0119 4.48099 10.8071 4.28092C10.6009 4.07984 10.2707 4.08357 10.0693 4.28976C9.65387 4.7152 9.11209 5.82474 10.0353 6.97827C10.6219 7.7118 10.0978 8.4173 10.0391 8.49186ZM21.126 9.22607C20.9032 9.04349 20.8706 8.71469 21.0533 8.49186C21.1124 8.41713 21.6365 7.7118 21.0496 6.97845C20.1264 5.82474 20.6681 4.7152 21.0836 4.28976C21.285 4.08357 21.6151 4.07984 21.8213 4.28092C22.0262 4.48099 22.0316 4.80844 21.8339 5.01496C21.7412 5.11516 21.3156 5.64064 21.8641 6.32644C22.768 7.45586 22.2571 8.66934 21.8604 9.15321C21.7571 9.27906 21.6073 9.34427 21.4565 9.34427C21.3404 9.34427 21.2232 9.30555 21.126 9.22607Z" fill="#FCC2BD"/>
</svg>
