<svg width="32" height="28" viewBox="0 0 32 28" fill="none" xmlns="http://www.w3.org/2000/svg">
<path fill-rule="evenodd" clip-rule="evenodd" d="M15.6675 7.76674C15.4446 7.58417 15.412 7.25536 15.5948 7.03254C15.6403 6.97564 16.7378 5.57568 15.591 4.14225C14.2269 2.43777 15.0166 0.809372 15.625 0.18641C15.8268 -0.0197718 16.1566 -0.0233384 16.3628 0.177579C16.5683 0.378156 16.573 0.706961 16.3736 0.913312C16.2585 1.03475 15.3057 2.11576 16.4056 3.49042C17.7503 5.17096 16.9912 6.97479 16.4018 7.69388C16.2986 7.81973 16.1491 7.88495 15.998 7.88495C15.8818 7.88495 15.7646 7.84623 15.6675 7.76674ZM31.6797 20.0896C31.6797 18.4595 29.4946 17.0628 25.5265 16.1565C25.4738 16.1441 25.4216 16.1429 25.3703 16.1468C24.2562 14.5086 22.5354 13.2311 20.1312 13.0963C20.0651 12.968 19.9941 12.8429 19.9127 12.7246C19.2863 11.8143 18.2941 11.3408 16.9692 11.3067C16.3333 10.78 15.4167 10.3821 14.0924 10.3821C12.0026 10.3821 11.0603 11.8775 10.7804 12.4376C9.28632 13.1026 7.94495 14.3794 6.93425 16.0554C4.39332 16.5931 0.320312 17.8103 0.320312 20.0896C0.320312 21.4286 1.75947 22.5065 3.99011 23.3068C4.31842 24.144 6.31974 27.7954 16.2371 27.7954C26.0271 27.7954 27.7439 24.2273 28.0246 23.3015C30.2469 22.5017 31.6797 21.4256 31.6797 20.0896ZM11.7171 13.1898C12.6524 12.8883 13.5274 12.934 14.2397 13.3019C12.4923 13.6493 9.3471 14.9329 8.13995 19.6507C8.06861 19.93 8.23675 20.2143 8.51596 20.2856C8.55944 20.2968 8.60292 20.3019 8.64572 20.3019C8.8784 20.3019 9.09035 20.1453 9.15082 19.9096C10.4558 14.8092 14.1412 14.271 15.1546 14.2204C15.3207 14.6208 15.3402 15.0934 15.2627 15.5948C14.1656 15.5386 11.9718 15.9709 10.7765 19.949C10.6936 20.2248 10.8499 20.5159 11.126 20.5988C11.176 20.6137 11.2266 20.6209 11.2765 20.6209C11.5007 20.6209 11.7079 20.4751 11.7758 20.2492C12.68 17.2402 14.0978 16.6621 14.9932 16.6315C14.3942 18.3349 13.1483 20.0077 13.1267 20.0359C12.9518 20.2645 12.9952 20.592 13.2242 20.7673C13.3186 20.8396 13.4304 20.8746 13.5408 20.8746C13.6977 20.8746 13.8526 20.8043 13.9555 20.6701C14.1304 20.4412 18.2143 15.0383 15.3108 12.7492C14.5207 12.1264 13.5415 11.8603 12.4811 11.9661C12.8592 11.6697 13.3833 11.4255 14.0924 11.4255C15.5003 11.4255 16.4868 11.9634 17.0238 13.0244C17.9331 14.8202 17.3794 17.8627 15.7361 20.1008C15.5656 20.3331 15.6155 20.6596 15.8478 20.8301C15.9409 20.8984 16.0489 20.9313 16.1562 20.9313C16.3166 20.9313 16.4749 20.8576 16.5771 20.7183C18.4674 18.144 19.0469 14.7098 17.9548 12.5529C17.9497 12.5428 17.9441 12.5325 17.9384 12.5223L17.9287 12.5045L17.9258 12.499C18.4079 12.6532 18.782 12.9225 19.0527 13.3155C20.2405 15.04 19.214 18.7903 18.7181 20.0899C18.6155 20.359 18.7503 20.6606 19.0194 20.7635C19.0805 20.7866 19.1437 20.7978 19.2055 20.7978C19.4154 20.7978 19.6135 20.6701 19.6929 20.4626C19.729 20.3683 20.1219 19.3226 20.3928 17.9694C20.8107 18.249 21.3916 18.8538 21.6379 20.128C21.6861 20.3776 21.9046 20.5509 22.1495 20.5509C22.1824 20.5509 22.2157 20.5478 22.249 20.5414C22.5319 20.4867 22.7171 20.2129 22.6624 19.9303C22.279 17.946 21.1841 17.1678 20.569 16.8795C20.6012 16.6121 20.6242 16.3401 20.6372 16.0671C21.3443 16.1311 22.9995 16.6251 23.6715 19.7445C23.7245 19.9891 23.9406 20.1562 24.181 20.1562C24.2177 20.1562 24.2548 20.1524 24.2918 20.1446C24.5734 20.0838 24.7524 19.8063 24.6919 19.5244C23.8652 15.6896 21.6119 15.0999 20.6277 15.03C20.6064 14.7387 20.567 14.4527 20.5075 14.1757C21.9283 14.3756 24.6522 15.3011 25.6855 19.3793C25.7452 19.6158 25.9579 19.773 26.1909 19.773C26.2334 19.773 26.2765 19.7679 26.3193 19.7571C26.5988 19.6864 26.7677 19.4024 26.697 19.1232C26.6916 19.102 26.6853 19.0807 26.679 19.0593L26.679 19.0592L26.6789 19.0592C26.6737 19.0413 26.6684 19.0235 26.6636 19.0057C27.3905 19.2875 27.56 19.5068 27.5922 19.5485L27.5922 19.5485C27.5959 19.5532 27.5978 19.5556 27.5985 19.5556C27.4056 20.1884 23.3505 21.3681 16.2792 21.3681C9.20516 21.3681 5.1498 20.1878 4.95958 19.5774C4.96032 19.5749 5.03533 19.3908 5.6001 19.1303C5.59821 19.1368 5.59613 19.1432 5.59405 19.1496L5.59405 19.1496L5.59402 19.1497L5.59401 19.1497L5.594 19.1497C5.5918 19.1565 5.58961 19.1632 5.58764 19.1701C5.50849 19.4469 5.66848 19.736 5.94565 19.8155C6.22181 19.8943 6.51121 19.7343 6.59103 19.4575C7.66508 15.7092 9.94327 13.762 11.7171 13.1898ZM5.53947 23.7861C6.57902 24.9307 9.31985 26.752 16.2371 26.752C23.2703 26.752 25.7547 24.8674 26.6108 23.7464C23.6506 24.5577 19.7674 24.9792 16 24.9792C12.2955 24.9792 8.4803 24.571 5.53947 23.7861ZM16 23.9357C7.37466 23.9357 1.36379 21.9089 1.36379 20.0896C1.36379 19.3177 2.68153 18.1575 6.28876 17.2741C6.20247 17.4621 6.12044 17.654 6.04204 17.8491C5.11623 18.1423 3.91746 18.6376 3.91746 19.5662C3.91746 21.8124 11.6878 22.4116 16.2792 22.4116C20.8706 22.4116 28.641 21.8124 28.641 19.5662C28.641 18.5964 27.3281 18.0906 26.3407 17.7948C26.3091 17.7853 26.2772 17.7799 26.2455 17.7765C26.1879 17.6376 26.1275 17.4996 26.0628 17.3623C29.4189 18.2405 30.6362 19.3606 30.6362 20.0896C30.6362 21.9089 24.6253 23.9357 16 23.9357ZM10.3594 7.85319C10.1766 8.07619 10.2092 8.40482 10.4324 8.58739C10.5292 8.66688 10.6464 8.7056 10.7626 8.7056C10.9137 8.7056 11.0635 8.64038 11.1664 8.51453C11.5628 8.03067 12.0737 6.81718 11.1702 5.68777C10.6216 5.00197 11.0472 4.47649 11.1399 4.37629C11.3376 4.16977 11.3322 3.84232 11.1274 3.64225C10.9212 3.44117 10.591 3.4449 10.3896 3.65108C9.97418 4.07653 9.4324 5.18607 10.3556 6.3396C10.9423 7.07313 10.4181 7.77863 10.3594 7.85319ZM21.4463 8.58739C21.2235 8.40482 21.1909 8.07602 21.3736 7.85319C21.4327 7.77846 21.9569 7.07313 21.3699 6.33977C20.4467 5.18607 20.9885 4.07653 21.4039 3.65108C21.6053 3.4449 21.9355 3.44117 22.1416 3.64225C22.3465 3.84232 22.3519 4.16977 22.1542 4.37629C22.0615 4.47649 21.6359 5.00197 22.1844 5.68777C23.0883 6.81718 22.5774 8.03067 22.1807 8.51453C22.0774 8.64038 21.9276 8.7056 21.7768 8.7056C21.6607 8.7056 21.5435 8.66688 21.4463 8.58739Z" fill="white"/>
</svg>
