<svg width="30" height="21" viewBox="0 0 30 21" fill="none" xmlns="http://www.w3.org/2000/svg">
<path fill-rule="evenodd" clip-rule="evenodd" d="M27.3232 0.316406H18.2997V1.51777H23.7297C23.7798 2.01584 23.9305 2.52516 24.1736 3.02902C24.4726 3.64607 24.9045 4.25425 25.4564 4.80652C25.9804 5.33016 26.5548 5.74572 27.1391 6.04232C27.6011 6.27618 28.0691 6.43334 28.5297 6.50732V11.5889C28.0695 11.6629 27.6014 11.82 27.1395 12.0539C26.5552 12.3505 25.9807 12.7661 25.4568 13.2897C24.9048 13.842 24.4726 14.4502 24.1739 15.0672C23.9309 15.5711 23.7802 16.0804 23.7301 16.5785H9.23324C9.18312 16.0804 9.03244 15.5711 8.78938 15.0672C8.4904 14.4502 8.05847 13.842 7.50653 13.2894C6.98256 12.7657 6.40812 12.3502 5.82381 12.0536C5.36188 11.8197 4.89381 11.6625 4.43358 11.5886V6.50766C4.89381 6.43368 5.36188 6.27652 5.82381 6.04266C6.40812 5.74607 6.98256 5.3305 7.50653 4.80686C8.05847 4.25459 8.49074 3.64641 8.78938 3.02936C9.03244 2.5255 9.18347 2.01618 9.23324 1.51811H14.6349V0.316747H5.63972C4.31153 0.319134 3.2346 1.39607 3.23222 2.72459V15.3733C3.2346 16.7015 4.31153 17.7785 5.63972 17.7808H27.3232C28.6514 17.7785 29.7287 16.7015 29.7311 15.3733V2.72425C29.7287 1.39572 28.6514 0.318793 27.3232 0.316406ZM27.6826 4.97118C27.2199 4.73663 26.7434 4.3947 26.306 3.95732C25.8447 3.49641 25.4898 2.99186 25.2549 2.50607C25.0855 2.15697 24.9822 1.81913 24.9365 1.51811H27.3232C27.6546 1.51811 27.9532 1.65243 28.1745 1.873C28.3951 2.09425 28.5294 2.39322 28.5294 2.72459V5.28345C28.2631 5.22107 27.9768 5.12084 27.6826 4.97118ZM5.63972 1.51777C5.30835 1.51811 5.00972 1.65209 4.78847 1.87266C4.5679 2.09425 4.43358 2.39288 4.43358 2.72425V5.28277C4.70017 5.22072 4.98619 5.1205 5.2804 4.97084C5.74335 4.73629 6.21994 4.39436 6.65699 3.95697C7.11824 3.49641 7.47312 2.99152 7.70801 2.50572C7.87744 2.15663 7.98074 1.81879 8.02642 1.51777H5.63972ZM4.78847 16.2242C4.5679 16.003 4.43392 15.7044 4.43358 15.373V12.8141C4.70017 12.8762 4.98619 12.9764 5.2804 13.1261C5.74301 13.3606 6.2196 13.7025 6.65699 14.1399C7.11824 14.6008 7.47312 15.1054 7.70801 15.5915C7.87744 15.9406 7.98074 16.2785 8.02642 16.5795H5.63972C5.30835 16.5788 5.00972 16.4448 4.78847 16.2242ZM27.3232 16.5791C27.6543 16.5788 27.9532 16.4448 28.1745 16.2242C28.3951 16.0027 28.5294 15.704 28.5297 15.373V12.8141C28.2631 12.8762 27.9768 12.9764 27.6826 13.1261C27.2196 13.3606 26.743 13.7025 26.306 14.1399C25.8447 14.6005 25.4898 15.105 25.2549 15.5912C25.0855 15.9403 24.9822 16.2781 24.9365 16.5791H27.3232ZM16.4816 12.7197C14.4713 12.719 12.8424 11.0902 12.8421 9.08016C12.8424 7.07016 14.4713 5.44129 16.4816 5.44095C18.4916 5.44129 20.1205 7.07016 20.1209 9.08016C20.1205 11.0905 18.492 12.7194 16.4816 12.7197ZM18.2053 10.8041C18.6474 10.361 18.9191 9.75516 18.9195 9.08016C18.9191 8.40516 18.6474 7.79936 18.2049 7.35618C17.7621 6.91436 17.1563 6.64266 16.4813 6.64232C15.806 6.64266 15.2005 6.91436 14.7573 7.35652C14.3155 7.79936 14.0438 8.40516 14.0435 9.08016C14.0438 9.75516 14.3155 10.361 14.7577 10.8041C15.2009 11.2463 15.8063 11.518 16.4816 11.5183C17.1566 11.518 17.7621 11.2463 18.2053 10.8041ZM11.2218 5.09595C11.2218 5.64893 10.7735 6.0972 10.2205 6.0972C9.66754 6.0972 9.21926 5.64893 9.21926 5.09595C9.21926 4.54298 9.66754 4.0947 10.2205 4.0947C10.7735 4.0947 11.2218 4.54298 11.2218 5.09595ZM22.7803 14.0022C23.3333 14.0022 23.7815 13.5539 23.7815 13.001C23.7815 12.448 23.3333 11.9997 22.7803 11.9997C22.2273 11.9997 21.779 12.448 21.779 13.001C21.779 13.5539 22.2273 14.0022 22.7803 14.0022ZM24.357 19.5454C24.688 19.545 24.987 19.4111 25.2082 19.1905C25.4288 18.9692 25.5631 18.6703 25.5631 18.3396H26.7645C26.7621 19.6678 25.6852 20.745 24.357 20.7474H2.67347C1.34528 20.745 0.268011 19.6678 0.265625 18.3396V5.69084C0.268011 4.36266 1.34528 3.28538 2.67347 3.283V4.48436C2.34244 4.48436 2.04347 4.61868 1.82222 4.83925C1.60165 5.0605 1.46733 5.35913 1.46733 5.6905V18.3392C1.46733 18.6703 1.60165 18.9689 1.82222 19.1905C2.04347 19.4111 2.3421 19.545 2.67347 19.5454H24.357Z" fill="white"/>
</svg>
