<svg width="22" height="24" viewBox="0 0 22 24" fill="none" xmlns="http://www.w3.org/2000/svg">
<path fill-rule="evenodd" clip-rule="evenodd" d="M19.9628 0H10.2003C9.32874 0 8.62216 0.706576 8.62216 1.57818V6.30303C7.77163 6.48883 6.94229 6.76094 6.14701 7.11515C5.46206 7.41542 4.79363 7.75206 4.14459 8.12364C2.83638 8.86425 1.93095 10.1543 1.67913 11.6364L0.00882999 21.2606C-0.0279792 21.4741 0.051905 21.691 0.218391 21.8296C0.384877 21.9683 0.612672 22.0075 0.815967 21.9327C1.01926 21.8578 1.16717 21.6802 1.20398 21.4667L2.87428 11.8327C3.06923 10.7116 3.75709 9.73723 4.74822 9.17818C5.35825 8.83311 5.98621 8.52075 6.62944 8.24242C7.27252 7.95824 7.93933 7.73111 8.62216 7.56364V11.6048C8.47878 11.5481 8.33228 11.4995 8.18338 11.4594C7.86004 11.3704 7.52574 11.5603 7.43671 11.8836C7.34767 12.207 7.53761 12.5413 7.86095 12.6303C8.17895 12.7107 8.47689 12.856 8.7361 13.057C8.36507 13.6315 7.88289 14.1261 7.31792 14.5115C7.04077 14.703 6.97131 15.0829 7.16277 15.36C7.35423 15.6371 7.73411 15.7066 8.01125 15.5152C8.72977 15.0217 9.33882 14.3855 9.80035 13.6461L11.7737 10.5333C12.0883 10.0333 12.7488 9.88294 13.2488 10.1976C13.7489 10.5122 13.8992 11.1727 13.5846 11.6727L12.1106 14.0606C11.5188 15.01 11.2211 16.1133 11.2549 17.2315C11.3034 18.7527 10.572 20.1934 9.3155 21.0521L9.1555 21.1636C8.5132 21.6027 7.96849 22.1697 7.5555 22.8291C7.44031 23.0136 7.43228 23.2455 7.53445 23.4375C7.63662 23.6295 7.83346 23.7524 8.05081 23.7599C8.26817 23.7674 8.47303 23.6584 8.58822 23.4739C8.91289 22.9548 9.34123 22.5084 9.84641 22.1624L10.0064 22.0509C10.9119 21.4281 11.6168 20.5555 12.0355 19.5394L12.1834 19.6897C12.6566 20.169 13.3468 20.3644 14.001 20.2045C14.6553 20.0445 15.1774 19.5526 15.3761 18.9091C16.0342 19.0569 16.7208 18.8362 17.1695 18.3326C17.6182 17.829 17.7586 17.1216 17.5361 16.4848L17.507 16.4H19.9628C20.3813 16.4 20.7827 16.2337 21.0787 15.9378C21.3747 15.6418 21.541 15.2404 21.541 14.8218V1.57818C21.541 1.15962 21.3747 0.758205 21.0787 0.462239C20.7827 0.166272 20.3813 0 19.9628 0ZM14.6294 12.3152C15.2529 11.2524 14.9197 9.8866 13.8769 9.23027C12.8341 8.57395 11.4586 8.86429 10.77 9.88606L9.84398 11.3406V1.57818C9.84391 1.37974 10.002 1.21738 10.2003 1.21212H17.3276V15.183H12.8816C12.958 15.0163 13.0447 14.8543 13.141 14.6982L14.6294 12.3152ZM13.0488 18.8364C13.3033 19.097 13.7146 19.1202 13.9967 18.8897C14.2741 18.6665 14.3426 18.2721 14.1567 17.9685L13.2113 16.4315C13.1943 16.4194 13.1943 16.3952 13.1943 16.3952H12.5179C12.4771 16.6598 12.4601 16.9275 12.467 17.1952C12.4753 17.5252 12.455 17.8553 12.4064 18.1818L13.0488 18.8364ZM16.3967 16.8824C16.5022 17.1914 16.3602 17.5304 16.066 17.672C15.7718 17.8135 15.4183 17.7128 15.2428 17.4376C15.2331 17.4206 15.224 17.4036 15.2149 17.3867C15.2058 17.3697 15.1967 17.3527 15.187 17.3358L14.6125 16.4H16.2246L16.3967 16.8824ZM19.9603 15.183C20.1625 15.183 20.3264 15.0191 20.3264 14.817L20.3288 1.57818C20.3288 1.37601 20.1649 1.21212 19.9628 1.21212H18.5397V15.183H19.9603Z" fill="#474A52"/>
</svg>
