<svg width="32" height="32" viewBox="0 0 32 32" fill="none" xmlns="http://www.w3.org/2000/svg">
<path fill-rule="evenodd" clip-rule="evenodd" d="M10.4056 0.290702C20.9537 1.65366 29.6648 10.3648 31.0278 20.9722C31.3241 22.6907 30.1981 23.9944 28.7759 24.1722C28.1241 24.2314 27.5315 24.0537 26.9981 23.6981L1.10185 31.0463C0.864815 31.1055 0.627778 31.0463 0.45 30.8685C0.272222 30.6907 0.212963 30.4537 0.272222 30.2166L7.67963 4.32033C7.32407 3.84626 7.1463 3.19441 7.20556 2.54255C7.38333 1.06107 8.68704 -0.0648539 10.4056 0.290702ZM8.39074 12.2018C8.39074 11.4314 7.97593 10.7203 7.26481 10.3648L6.13889 14.2759H6.31667C7.44259 14.2759 8.39074 13.3277 8.39074 12.2018ZM5.78333 15.5203C5.87222 15.5203 5.96111 15.5351 6.05 15.55C6.13889 15.5648 6.22778 15.5796 6.31667 15.5796C8.1537 15.5796 9.69444 14.0389 9.69444 12.2018C9.69444 10.8389 8.86481 9.59441 7.62037 9.12033L8.7463 5.20922C8.98333 5.32774 9.10185 5.387 9.45741 5.387C17.9907 6.39441 24.9833 13.3277 25.9315 21.8611C25.9315 22.0191 25.9842 22.1771 26.0368 22.3351L26.0369 22.3352C26.0632 22.4142 26.0895 22.4932 26.1093 22.5722L24.1537 23.1055C23.6204 21.3277 21.9019 20.024 20.0056 20.024C17.5759 20.024 15.6204 21.9796 15.6204 24.4092C15.6204 24.7648 15.6796 25.1203 15.7389 25.4759L1.87222 29.4463L5.78333 15.5203ZM16.9241 24.4685C16.9241 24.7055 16.9833 24.9426 17.0426 25.1796L22.9093 23.5203C22.4944 22.2759 21.3685 21.387 20.0056 21.387C18.287 21.387 16.9241 22.75 16.9241 24.4685ZM28.6574 22.8685C27.887 22.9277 27.2944 22.3944 27.2352 21.7426C26.1685 12.6166 18.7611 5.14996 9.63519 4.14255C8.92407 4.08329 8.39074 3.43144 8.50926 2.72033C8.56852 2.06848 9.16111 1.41663 10.2278 1.65366C20.3019 2.95737 28.4796 11.1944 29.7833 21.2685C29.9611 22.2166 29.3093 22.8092 28.6574 22.8685ZM6.67222 21.3277C5.19074 21.3277 4.06481 22.5129 4.06481 23.9351C4.06481 25.4166 5.25 26.5426 6.67222 26.5426C8.09444 26.5426 9.27963 25.3574 9.27963 23.9351C9.33889 22.5129 8.1537 21.3277 6.67222 21.3277ZM6.67222 25.2981C5.90185 25.2981 5.30926 24.7055 5.30926 23.9351C5.30926 23.1648 5.90185 22.5722 6.67222 22.5722C7.44259 22.5722 8.03518 23.1648 8.03518 23.9351C8.03518 24.7055 7.44259 25.2981 6.67222 25.2981ZM22.0796 14.9277C22.0796 16.0537 21.1315 17.0018 20.0056 17.0018C18.8796 17.0018 17.9315 16.0537 17.9315 14.9277C17.9315 13.8018 18.8796 12.8537 20.0056 12.8537C21.1315 12.8537 22.0796 13.8018 22.0796 14.9277ZM20.7759 14.9277C20.7759 14.5129 20.4204 14.1574 20.0056 14.1574C19.5907 14.1574 19.2352 14.5129 19.2352 14.9277C19.2352 15.3426 19.5907 15.6981 20.0056 15.6981C20.4204 15.6981 20.7759 15.3426 20.7759 14.9277ZM13.25 12.9129C11.65 12.9129 10.3463 14.2166 10.3463 15.8166C10.3463 17.4166 11.65 18.7203 13.25 18.7203C14.85 18.7203 16.1537 17.4166 16.1537 15.8166C16.1537 14.2166 14.85 12.9129 13.25 12.9129ZM13.25 17.4759C12.3611 17.4759 11.5907 16.7648 11.5907 15.8166C11.5907 14.9277 12.3019 14.1574 13.25 14.1574C14.1981 14.1574 14.9093 14.8685 14.9093 15.8166C14.9093 16.7055 14.1389 17.4759 13.25 17.4759ZM13.25 9.23885C14.0204 9.23885 14.6722 9.8907 14.6722 10.6611C14.6722 11.0166 14.9685 11.3129 15.3241 11.3129C15.6796 11.3129 15.9759 11.0166 15.9759 10.6611C15.9759 9.17959 14.7907 7.93515 13.25 7.93515C12.8944 7.93515 12.5981 8.23144 12.5981 8.587C12.5981 8.94255 12.8944 9.23885 13.25 9.23885ZM10.4648 21.624L11.7093 20.2611C11.9463 20.024 12.3611 20.024 12.5981 20.2018C12.8944 20.4389 12.8944 20.8537 12.6574 21.0907L11.413 22.4537C11.1759 22.75 10.7611 22.75 10.5241 22.5129C10.2278 22.2759 10.2278 21.8611 10.4648 21.624Z" fill="#FCC2BD"/>
</svg>
