<svg width="32" height="32" viewBox="0 0 32 32" fill="none" xmlns="http://www.w3.org/2000/svg">
<path fill-rule="evenodd" clip-rule="evenodd" d="M10.7259 0.65203C21.274 2.01499 29.9851 10.7261 31.3481 21.3335C31.6444 23.052 30.5185 24.3557 29.0962 24.5335C28.4444 24.5928 27.8518 24.415 27.3185 24.0594L1.42216 31.4076C1.18513 31.4668 0.94809 31.4076 0.770313 31.2298C0.592535 31.052 0.533275 30.815 0.592535 30.578L7.99994 4.68166C7.64439 4.20759 7.46661 3.55573 7.52587 2.90388C7.70365 1.4224 9.00735 0.296474 10.7259 0.65203ZM8.71105 12.5631C8.71105 11.7928 8.29624 11.0817 7.58513 10.7261L6.4592 14.6372H6.63698C7.76291 14.6372 8.71105 13.6891 8.71105 12.5631ZM6.10365 15.8817C6.19253 15.8817 6.28142 15.8965 6.37031 15.9113C6.4592 15.9261 6.54809 15.9409 6.63698 15.9409C8.47402 15.9409 10.0148 14.4002 10.0148 12.5631C10.0148 11.2002 9.18513 9.95573 7.94068 9.48166L9.06661 5.57055C9.30365 5.68907 9.42216 5.74833 9.77772 5.74833C18.3111 6.75573 25.3036 13.6891 26.2518 22.2224C26.2518 22.3804 26.3045 22.5385 26.3571 22.6965L26.3572 22.6965C26.3835 22.7755 26.4098 22.8545 26.4296 22.9335L24.474 23.4668C23.9407 21.6891 22.2222 20.3854 20.3259 20.3854C17.8962 20.3854 15.9407 22.3409 15.9407 24.7705C15.9407 25.1261 15.9999 25.4817 16.0592 25.8372L2.19253 29.8076L6.10365 15.8817ZM17.2444 24.8298C17.2444 25.0668 17.3036 25.3039 17.3629 25.5409L23.2296 23.8817C22.8148 22.6372 21.6888 21.7483 20.3259 21.7483C18.6073 21.7483 17.2444 23.1113 17.2444 24.8298ZM28.9777 23.2298C28.2073 23.2891 27.6148 22.7557 27.5555 22.1039C26.4888 12.978 19.0814 5.51129 9.9555 4.50388C9.24439 4.44462 8.71105 3.79277 8.82957 3.08166C8.88883 2.42981 9.48142 1.77796 10.5481 2.01499C20.6222 3.3187 28.7999 11.5557 30.1036 21.6298C30.2814 22.578 29.6296 23.1705 28.9777 23.2298ZM6.99253 21.6891C5.51105 21.6891 4.38513 22.8743 4.38513 24.2965C4.38513 25.778 5.57031 26.9039 6.99253 26.9039C8.41476 26.9039 9.59994 25.7187 9.59994 24.2965C9.6592 22.8743 8.47402 21.6891 6.99253 21.6891ZM6.99253 25.6594C6.22216 25.6594 5.62957 25.0668 5.62957 24.2965C5.62957 23.5261 6.22216 22.9335 6.99253 22.9335C7.76291 22.9335 8.3555 23.5261 8.3555 24.2965C8.3555 25.0668 7.76291 25.6594 6.99253 25.6594ZM22.3999 15.2891C22.3999 16.415 21.4518 17.3631 20.3259 17.3631C19.1999 17.3631 18.2518 16.415 18.2518 15.2891C18.2518 14.1631 19.1999 13.215 20.3259 13.215C21.4518 13.215 22.3999 14.1631 22.3999 15.2891ZM21.0962 15.2891C21.0962 14.8743 20.7407 14.5187 20.3259 14.5187C19.9111 14.5187 19.5555 14.8743 19.5555 15.2891C19.5555 15.7039 19.9111 16.0594 20.3259 16.0594C20.7407 16.0594 21.0962 15.7039 21.0962 15.2891ZM13.5703 13.2743C11.9703 13.2743 10.6666 14.578 10.6666 16.178C10.6666 17.778 11.9703 19.0817 13.5703 19.0817C15.1703 19.0817 16.474 17.778 16.474 16.178C16.474 14.578 15.1703 13.2743 13.5703 13.2743ZM13.5703 17.8372C12.6814 17.8372 11.9111 17.1261 11.9111 16.178C11.9111 15.2891 12.6222 14.5187 13.5703 14.5187C14.5185 14.5187 15.2296 15.2298 15.2296 16.178C15.2296 17.0668 14.4592 17.8372 13.5703 17.8372ZM13.5703 9.60018C14.3407 9.60018 14.9925 10.252 14.9925 11.0224C14.9925 11.378 15.2888 11.6743 15.6444 11.6743C15.9999 11.6743 16.2962 11.378 16.2962 11.0224C16.2962 9.54092 15.1111 8.29647 13.5703 8.29647C13.2148 8.29647 12.9185 8.59277 12.9185 8.94833C12.9185 9.30388 13.2148 9.60018 13.5703 9.60018ZM10.7851 21.9854L12.0296 20.6224C12.2666 20.3854 12.6814 20.3854 12.9185 20.5631C13.2148 20.8002 13.2148 21.215 12.9777 21.452L11.7333 22.815C11.4962 23.1113 11.0814 23.1113 10.8444 22.8743C10.5481 22.6372 10.5481 22.2224 10.7851 21.9854Z" fill="white"/>
</svg>
