<svg width="20" height="20" viewBox="0 0 20 20" fill="none" xmlns="http://www.w3.org/2000/svg">
<path fill-rule="evenodd" clip-rule="evenodd" d="M18.194 20H1.80602C0.808583 20 0 19.1914 0 18.194V1.80603C0 0.808593 0.808583 1.00754e-05 1.80602 1.00754e-05H16.99C17.15 -0.000915064 17.3038 0.0619045 17.4174 0.174592L19.8254 2.58262C19.9381 2.69623 20.0009 2.85003 20 3.01004V18.194C20 19.1914 19.1914 20 18.194 20ZM5.41806 15.184V18.796H14.5819V15.184C14.5819 14.8515 14.3124 14.582 13.9799 14.582H6.02007C5.68759 14.582 5.41806 14.8515 5.41806 15.184ZM12.8428 1.20402V3.2776C12.8428 3.61008 12.5733 3.87961 12.2408 3.87961H7.7592C7.42672 3.87961 7.15719 3.61008 7.15719 3.2776V1.20402H12.8428ZM1.80602 1.20402C1.47354 1.20402 1.20401 1.47355 1.20401 1.80603V18.194C1.20401 18.5265 1.47354 18.796 1.80602 18.796H4.21405V15.184C4.21405 14.1865 5.02263 13.3779 6.02007 13.3779H13.9799C14.9774 13.3779 15.786 14.1865 15.786 15.184V18.796H18.194C18.5265 18.796 18.796 18.5265 18.796 18.194V3.25687L16.7431 1.20402H14.0468V3.2776C14.0468 4.27504 13.2382 5.08362 12.2408 5.08362H7.7592C6.76176 5.08362 5.95318 4.27504 5.95318 3.2776V1.20402H1.80602Z" fill="url(#paint0_linear_1713_7416)"/>
<defs>
<linearGradient id="paint0_linear_1713_7416" x1="-10" y1="10" x2="10" y2="30" gradientUnits="userSpaceOnUse">
<stop stop-color="#F98443"/>
<stop offset="1" stop-color="#F84775"/>
</linearGradient>
</defs>
</svg>
