<svg width="32" height="32" viewBox="0 0 32 32" fill="none" xmlns="http://www.w3.org/2000/svg">
<path fill-rule="evenodd" clip-rule="evenodd" d="M8.18433 0.692897C8.33801 0.526405 8.4917 0.385526 8.74784 0.359912C9.05521 0.347105 9.37539 0.564826 9.46504 0.85939C9.77241 1.75589 10.3359 2.33221 11.3605 3.01099C14.2933 2.40905 19.1749 2.42186 22.4151 2.92134C28.9468 4.43258 32.8273 10.6312 31.3161 18.1106C31.2393 18.4308 30.9319 18.6869 30.6117 18.6869H29.395L29.1389 19.9036C29.0877 20.1982 28.8315 20.4287 28.5369 20.4671C25.1943 21.0306 22.2999 20.9026 19.6872 19.7755C17.0746 18.6485 12.7821 16.5609 10.5793 13.3592C9.9261 12.373 9.11925 11.9248 8.46608 11.8095C7.7745 11.6942 7.07011 11.8607 6.37852 12.2962C5.00816 13.167 3.8299 15.1009 3.68902 16.8427C3.61218 17.8032 3.8299 20.6741 4.40622 21.3657C4.98254 22.0573 5.9815 22.6336 7.62081 22.8385C8.09468 22.8897 8.40205 23.4917 8.17152 23.9015L6.5194 26.8343L7.97941 30.2795C8.09468 30.5484 8.01783 30.907 7.7873 31.1119C7.55678 31.304 7.19818 31.3297 6.94203 31.176C2.20339 28.3584 -0.165925 21.2355 0.0133746 16.2408C0.141446 12.2962 1.87041 8.4156 5.27711 5.79014C5.8022 5.39312 6.37852 5.02171 6.98046 4.67592C7.04449 3.24152 7.42871 1.81993 8.18433 0.692897ZM9.61872 3.49766C9.33697 3.25432 9.08083 2.98537 8.8631 2.70362C8.72223 3.08783 8.60696 3.49766 8.53012 3.9203L8.61807 3.88443L8.61809 3.88442L8.61815 3.8844C8.93857 3.75367 9.27865 3.61493 9.61872 3.49766ZM22.1334 4.33012C27.7685 5.66207 31.0471 10.6825 29.9713 17.2397H28.7931C28.4601 17.2397 28.1527 17.4959 28.0759 17.816L27.8197 19.1096C25.8859 19.3913 24.1825 19.4169 22.6201 19.1352C21.9541 17.4574 21.7492 16.2664 21.9285 15.3186C22.1206 14.3581 22.7097 13.5128 23.9136 12.4755L22.9658 11.3869C21.6467 12.5267 20.7886 13.6665 20.5197 15.0497C20.302 16.1511 20.4685 17.3294 20.9295 18.7125C20.7509 18.653 20.5722 18.578 20.3995 18.5056L20.3995 18.5056C20.3493 18.4846 20.2997 18.4638 20.2507 18.4436C17.9454 17.4574 13.8835 15.6004 11.7575 12.5395C10.9122 11.3997 9.82364 10.6056 8.72223 10.3879C7.62081 10.1958 6.53221 10.4904 5.61009 11.0795C3.76586 12.2449 2.43392 14.4734 2.24182 16.7274C2.15217 17.9825 2.44673 21.2632 3.292 22.2878C3.98359 23.1203 5.03377 23.735 6.41694 24.068L5.085 26.4373C4.98254 26.6294 4.96974 26.8728 5.04658 27.0649L5.58448 28.3072C2.7541 25.6817 1.33251 19.9676 1.46058 16.292C1.57584 12.7444 3.1127 9.28648 6.1608 6.92997C10.861 3.68977 17.0105 3.54889 22.1334 4.33012ZM25.9627 12.6548C25.9627 12.0656 26.4494 11.579 27.0513 11.579C27.6533 11.579 28.1399 12.0656 28.1399 12.6548C28.1399 13.2567 27.6533 13.7434 27.0513 13.7434C26.4494 13.7434 25.9627 13.2567 25.9627 12.6548Z" fill="white"/>
</svg>
