<svg width="24" height="24" viewBox="0 0 24 24" fill="none" xmlns="http://www.w3.org/2000/svg">
<path fill-rule="evenodd" clip-rule="evenodd" d="M18.878 17.1805L23.239 21.5415C23.678 22.0098 23.678 22.7415 23.2098 23.239C23.0049 23.4732 22.7122 23.5902 22.3902 23.5902C22.0976 23.5902 21.8049 23.4732 21.5707 23.239L17.2098 18.878C15.3366 20.3707 12.9951 21.1902 10.5951 21.1902C7.7561 21.1902 5.09268 20.078 3.10244 18.0878C1.1122 16.0683 0 13.4341 0 10.5951C0 7.7561 1.1122 5.09268 3.10244 3.10244C5.12195 1.1122 7.7561 0 10.5951 0C13.4341 0 16.0976 1.1122 18.0878 3.10244C21.8927 6.87805 22.2146 13.0244 18.878 17.1805ZM16.4488 16.3902C18 14.839 18.8488 12.761 18.8488 10.5659C18.8488 8.37073 18 6.29268 16.4488 4.74146C14.8976 3.19024 12.8195 2.34146 10.6244 2.34146C8.42927 2.34146 6.35122 3.19024 4.8 4.74146C3.24878 6.29268 2.4 8.37073 2.4 10.5659C2.4 12.761 3.24878 14.839 4.8 16.3902C6.35122 17.9415 8.42927 18.7902 10.6244 18.7902C12.8195 18.7902 14.8976 17.9415 16.4488 16.3902Z" fill="#B1B4B8"/>
</svg>
