<svg width="32" height="32" viewBox="0 0 32 32" fill="none" xmlns="http://www.w3.org/2000/svg">
<path fill-rule="evenodd" clip-rule="evenodd" d="M13.6591 0.170455C14.4235 0.0582343 15.2039 0 16 0C16.7961 0 17.5765 0.0582343 18.3409 0.170455C18.6235 0.213459 18.8547 0.417971 18.9318 0.693182L19.8636 3.92045C20.536 4.13644 21.1892 4.39697 21.8068 4.71591L24.75 3.10227C24.9978 2.96288 25.3041 2.98064 25.5341 3.14773C26.1539 3.60884 26.7552 4.11879 27.3182 4.68182C27.8812 5.24485 28.3912 5.84612 28.8523 6.46591C29.0194 6.69593 29.0371 7.00221 28.8977 7.25L27.2841 10.1932C27.603 10.8108 27.8636 11.464 28.0795 12.1364L31.3068 13.0682C31.582 13.1453 31.7865 13.3765 31.8295 13.6591C31.9418 14.4235 32 15.2039 32 16C32 16.7961 31.9418 17.5765 31.8295 18.3409C31.7865 18.6235 31.582 18.8547 31.3068 18.9318L28.0795 19.8636C27.8636 20.536 27.603 21.1892 27.2841 21.8068L28.8977 24.75C29.0371 24.9978 29.0194 25.3041 28.8523 25.5341C28.3912 26.1539 27.8812 26.7552 27.3182 27.3182C26.7552 27.8812 26.1539 28.3912 25.5341 28.8523C25.3041 29.0194 24.9978 29.0371 24.75 28.8977L21.8068 27.2841C21.1892 27.603 20.536 27.8636 19.8636 28.0795L18.9318 31.3068C18.8547 31.582 18.6235 31.7865 18.3409 31.8295C17.5765 31.9418 16.7961 32 16 32C15.2039 32 14.4235 31.9418 13.6591 31.8295C13.3765 31.7865 13.1453 31.582 13.0682 31.3068L12.1364 28.0795C11.464 27.8636 10.8108 27.603 10.1932 27.2841L7.25 28.8977C7.00221 29.0371 6.69593 29.0194 6.46591 28.8523C5.84612 28.3912 5.24485 27.8812 4.68182 27.3182C4.11879 26.7552 3.60884 26.1539 3.14773 25.5341C2.98064 25.3041 2.96288 24.9978 3.10227 24.75L4.71591 21.8068C4.39698 21.1892 4.13644 20.536 3.92045 19.8636L0.693182 18.9318C0.417971 18.8547 0.213459 18.6235 0.170455 18.3409C0.0582321 17.5765 0 16.7961 0 16C0 15.2039 0.0582321 14.4235 0.170455 13.6591C0.213459 13.3765 0.417971 13.1453 0.693182 13.0682L3.92045 12.1364C4.13644 11.464 4.39698 10.8108 4.71591 10.1932L3.10227 7.25C2.96288 7.00221 2.98064 6.69593 3.14773 6.46591C3.60884 5.84612 4.11879 5.24485 4.68182 4.68182C5.24485 4.11879 5.84612 3.60884 6.46591 3.14773C6.69593 2.98064 7.00221 2.96288 7.25 3.10227L10.1932 4.71591C10.8108 4.39697 11.464 4.13644 12.1364 3.92045L13.0682 0.693182C13.1453 0.417971 13.3765 0.213459 13.6591 0.170455ZM17.6818 1.57955C17.129 1.51552 16.57 1.45455 16 1.45455C15.43 1.45455 14.871 1.51552 14.3182 1.57955L13.4205 4.64773C13.3515 4.88965 13.1624 5.07874 12.9205 5.14773C12.0698 5.38842 11.2578 5.73514 10.5 6.15909C10.2808 6.28042 10.0146 6.28042 9.79545 6.15909L6.98864 4.61364C6.55137 4.95991 6.11961 5.31221 5.71591 5.71591C5.31221 6.11961 4.95991 6.55137 4.61364 6.98864L6.15909 9.79545C6.28042 10.0146 6.28042 10.2808 6.15909 10.5C5.73514 11.2578 5.38842 12.0698 5.14773 12.9205C5.07874 13.1624 4.88965 13.3515 4.64773 13.4205L1.57955 14.3182C1.51552 14.871 1.45455 15.43 1.45455 16C1.45455 16.57 1.51552 17.129 1.57955 17.6818L4.64773 18.5795C4.88965 18.6485 5.07874 18.8376 5.14773 19.0795C5.38842 19.9302 5.73514 20.7422 6.15909 21.5C6.28042 21.7192 6.28042 21.9854 6.15909 22.2045L4.61364 25.0114C4.95991 25.4486 5.31221 25.8804 5.71591 26.2841C6.11961 26.6878 6.55137 27.0401 6.98864 27.3864L9.79545 25.8409C10.0146 25.7196 10.2808 25.7196 10.5 25.8409C11.2578 26.2649 12.0698 26.6116 12.9205 26.8523C13.1624 26.9213 13.3515 27.1104 13.4205 27.3523L14.3182 30.4205C14.871 30.4845 15.43 30.5455 16 30.5455C16.57 30.5455 17.129 30.4845 17.6818 30.4205L18.5795 27.3523C18.6485 27.1104 18.8376 26.9213 19.0795 26.8523C19.9302 26.6116 20.7422 26.2649 21.5 25.8409C21.7192 25.7196 21.9854 25.7196 22.2045 25.8409L25.0114 27.3864C25.4486 27.0401 25.8804 26.6878 26.2841 26.2841C26.6878 25.8804 27.0401 25.4486 27.3864 25.0114L25.8409 22.2045C25.7196 21.9854 25.7196 21.7192 25.8409 21.5C26.2649 20.7422 26.6116 19.9302 26.8523 19.0795C26.9213 18.8376 27.1104 18.6485 27.3523 18.5795L30.4205 17.6818C30.4845 17.129 30.5455 16.57 30.5455 16C30.5455 15.43 30.4845 14.871 30.4205 14.3182L27.3523 13.4205C27.1104 13.3515 26.9213 13.1624 26.8523 12.9205C26.6116 12.0698 26.2649 11.2578 25.8409 10.5C25.7196 10.2808 25.7196 10.0146 25.8409 9.79545L27.3864 6.98864C27.0401 6.55137 26.6878 6.11961 26.2841 5.71591C25.8804 5.31221 25.4486 4.95991 25.0114 4.61364L22.2045 6.15909C21.9854 6.28042 21.7192 6.28042 21.5 6.15909C20.7422 5.73514 19.9302 5.38842 19.0795 5.14773C18.8376 5.07874 18.6485 4.88965 18.5795 4.64773L17.6818 1.57955ZM16 8.72727C11.992 8.72727 8.72727 11.992 8.72727 16C8.72727 20.008 11.992 23.2727 16 23.2727C20.008 23.2727 23.2727 20.008 23.2727 16C23.2727 11.992 20.008 8.72727 16 8.72727ZM21.8182 16C21.8182 12.7781 19.2219 10.1818 16 10.1818C12.7781 10.1818 10.1818 12.7781 10.1818 16C10.1818 19.2219 12.7781 21.8182 16 21.8182C19.2219 21.8182 21.8182 19.2219 21.8182 16Z" fill="#8C8E94"/>
</svg>
