<svg width="29" height="34" viewBox="0 0 29 34" fill="none" xmlns="http://www.w3.org/2000/svg">
<path fill-rule="evenodd" clip-rule="evenodd" d="M23.4662 2.19343C26.1318 2.19343 28.3004 4.36209 28.3004 7.02761C28.3004 7.93981 28.0369 8.82961 27.5571 9.59538C27.6274 9.70859 27.6594 9.84265 27.6417 9.97672L24.5473 33.293C24.509 33.5812 24.2633 33.7964 23.9728 33.7964H5.51888C5.22834 33.7964 4.98261 33.5812 4.94436 33.293L1.88204 10.2174C0.87054 9.30097 0.289062 8.01245 0.289062 6.64086C0.289062 3.97534 2.45772 1.80706 5.12324 1.80706C6.52111 1.80706 7.85445 2.42254 8.7682 3.47229C9.37672 3.30422 10.0069 3.25863 10.6274 3.33436C11.538 2.09413 12.9649 1.36506 14.5161 1.36506C14.9384 1.36506 15.3599 1.42186 15.7734 1.53468C16.684 0.579585 17.9366 0.0390625 19.2672 0.0390625C20.89 0.0390625 22.3995 0.856994 23.2912 2.1969C23.3507 2.19459 23.4087 2.19343 23.4662 2.19343ZM5.12324 2.96615C3.09677 2.96615 1.44815 4.61477 1.44815 6.64086C1.44815 7.66434 1.8747 8.62677 2.61729 9.32184H26.3358C26.855 8.67274 27.1421 7.86215 27.1421 7.02799C27.1421 5.00152 25.4935 3.3529 23.467 3.3529C23.3376 3.3529 23.2008 3.3614 23.0486 3.3784C22.8179 3.40584 22.5911 3.28915 22.4772 3.08515C21.8269 1.92143 20.5971 1.19815 19.2676 1.19815C18.1541 1.19815 17.1125 1.69656 16.4097 2.56549C16.2548 2.75752 15.9947 2.83093 15.7622 2.74593C15.3542 2.59834 14.9349 2.52377 14.5161 2.52377C13.2377 2.52377 12.0701 3.17672 11.3928 4.27013C11.2645 4.47684 11.0211 4.58231 10.7835 4.53286C10.1197 4.39724 9.4227 4.44631 8.76627 4.69011C8.52247 4.78052 8.24777 4.69706 8.09554 4.48727C7.40434 3.53488 6.29315 2.96615 5.12324 2.96615ZM15.3256 32.6373V23.8012C17.1415 23.7394 18.7317 23.3917 19.8978 22.8438L18.3384 32.6373H15.3256ZM10.0486 23.0374L11.5771 32.6373H14.1665V23.8012C12.5754 23.7471 11.1594 23.4732 10.0486 23.0374ZM14.1665 17.0692C12.1771 17.1368 10.4639 17.5502 9.27665 18.1908L8.04918 10.4802H14.1665V17.0692ZM20.7965 20.4352C20.7965 19.3874 18.209 18.2155 14.746 18.2155C11.283 18.2155 8.69518 19.3874 8.69518 20.4352C8.69518 21.483 11.283 22.6549 14.746 22.6549C18.209 22.6549 20.7965 21.483 20.7965 20.4352ZM20.6025 18.4207C19.4183 17.6499 17.5437 17.1445 15.3256 17.0692V10.4802H21.8667L20.6025 18.4207ZM6.8754 10.4802H3.08634L6.02656 32.6373H10.4033L8.76897 22.3732C7.98697 21.8315 7.53609 21.1677 7.53609 20.4352C7.53609 19.8958 7.78645 19.3959 8.22652 18.9523C8.22613 18.9502 8.22526 18.9483 8.22439 18.9463C8.22387 18.9452 8.22335 18.944 8.22294 18.9428C8.22266 18.942 8.22242 18.9412 8.22227 18.9404L6.8754 10.4802ZM23.4651 32.6373H19.5126L21.196 22.0641C21.1999 22.039 21.2002 22.0142 21.2005 21.9897L21.2006 21.983C21.6824 21.524 21.9559 21.0008 21.9559 20.4352C21.9559 20.0643 21.8385 19.7112 21.6233 19.3824L23.0405 10.4802H26.4053L23.4651 32.6373ZM19.0725 5.64984C18.6328 5.48061 18.146 5.55093 17.7685 5.83683C17.5135 6.0304 17.1496 5.98018 16.9568 5.72595C16.7632 5.47095 16.8131 5.10738 17.0681 4.91381C17.7674 4.38295 18.6726 4.25429 19.4886 4.56802C19.6374 4.6252 19.7796 4.69629 19.9148 4.78129C20.492 4.55797 21.1311 4.55488 21.7187 4.7809C22.5668 5.10738 23.1738 5.87045 23.3032 6.77184C23.3488 7.08865 23.1286 7.38229 22.8117 7.42788C22.7839 7.43174 22.7561 7.43368 22.7287 7.43368C22.4451 7.43368 22.197 7.22543 22.1557 6.93643C22.0862 6.44999 21.7593 6.03852 21.3026 5.86272C20.9201 5.71513 20.4963 5.74913 20.1404 5.95468C19.926 6.0787 19.6563 6.05243 19.4701 5.89015C19.3499 5.78584 19.2162 5.70509 19.0725 5.64984Z" fill="#96979B"/>
</svg>
