<?xml version="1.0" encoding="utf-8"?>
<!-- Generator: Adobe Illustrator 24.3.0, SVG Export Plug-In . SVG Version: 6.00 Build 0)  -->
<svg width="300" height="200" version="1.1" id="Layer_1" xmlns="http://www.w3.org/2000/svg" xmlns:xlink="http://www.w3.org/1999/xlink" x="0px" y="0px"
	 viewBox="0 0 60.4 26.1" style="enable-background:new 0 0 60.4 26.1;" xml:space="preserve">
<style type="text/css">
	.st0{display:none;}
	.st1{display:inline;}
	.st2{fill:none;stroke:#000000;stroke-miterlimit:10;}
</style>
<g class="st0">
	<path class="st1" d="M0-6.8c8.5,0.2,15.3,3,20.2,8.4c9.5,10.3,9.4,27.2,9.3,31.3H0V-6.8 M-1-7.8v41.7h31.4
		C30.4,33.9,33.9-7.8-1-7.8L-1-7.8z"/>
</g>
<g class="st0">
	<path class="st1" d="M59.4-6.8v39.7H30.7c-0.2-4.1-0.2-21.3,9.3-31.6C44.8-3.9,51.3-6.6,59.4-6.8 M60.4-7.8
		c-34,0-30.6,41.7-30.6,41.7h30.6V-7.8L60.4-7.8z"/>
</g>
<g>
	<g>
		<path d="M47.5,1C54,1,59.4,6.4,59.4,13.1c0,3.2-1.2,6.3-3.5,8.5c-2.3,2.3-5.2,3.5-8.4,3.5h-46V1H47.5 M47.5,0h-47v26.2h47.1
			c3.6,0,6.8-1.5,9.1-3.8c2.3-2.4,3.8-5.6,3.8-9.2C60.4,5.8,54.6,0,47.5,0L47.5,0z"/>
	</g>
</g>
<path class="st2" d="M-0.5,0"/>
<path class="st2" d="M-0.5,26.1"/>
<g>
	<line class="st2" x1="0" y1="10.9" x2="3.8" y2="10.9"/>
	<line class="st2" x1="0" y1="15.2" x2="3.8" y2="15.2"/>
</g>
<g>
	<path d="M9.1,11.7c0.3,0,0.6,0.6,0.6,1.3s-0.3,1.3-0.6,1.3S8.5,13.7,8.5,13S8.8,11.7,9.1,11.7 M9.1,11.5c-0.5,0-0.9,0.7-0.9,1.6
		s0.4,1.6,0.9,1.6S10,14,10,13.1S9.6,11.5,9.1,11.5L9.1,11.5z"/>
</g>
</svg>
