<?xml version="1.0" encoding="utf-8"?>
<!-- Generator: Adobe Illustrator 24.3.0, SVG Export Plug-In . SVG Version: 6.00 Build 0)  -->
<svg width="300" height="200" version="1.1" id="Layer_1" xmlns="http://www.w3.org/2000/svg" xmlns:xlink="http://www.w3.org/1999/xlink" x="0px" y="0px"
	 viewBox="0 0 53.2 32.5" style="enable-background:new 0 0 53.2 32.5;" xml:space="preserve">
<style type="text/css">
	.st0{display:none;}
	.st1{display:inline;}
	.st2{fill:none;stroke:#000000;stroke-miterlimit:10;}
</style>
<g id="Layer_1_2_" class="st0">
	<g id="Layer_1_1_" class="st1">
		<g>
			<path d="M1-3.6c8.5,0.2,15.3,3,20.2,8.4c9.5,10.3,9.4,27.2,9.3,31.3H1V-3.6 M0-4.6v41.7h31.4C31.4,37.1,34.9-4.6,0-4.6L0-4.6z"/>
		</g>
		<g>
			<path d="M60.4-3.6v39.7H31.7C31.5,32,31.5,14.8,41,4.5C45.8-0.7,52.3-3.4,60.4-3.6 M61.4-4.6c-34,0-30.6,41.7-30.6,41.7h30.6
				V-4.6L61.4-4.6z"/>
		</g>
		<path class="st2" d="M0.5,3.2"/>
		<path class="st2" d="M0.5,29.3"/>
	</g>
	<g id="Layer_2_1_" class="st1">
	</g>
</g>
<g id="Layer_2_2_">
	<path class="st2" d="M52.7,2.2v28.2c0,0.3-0.1,0.7-0.3,0.9l0,0c-0.3,0.4-0.7,0.6-1.2,0.6H11.1c-0.9,0-1.6-0.7-1.6-1.6V2.2
		c0-0.9,0.7-1.6,1.6-1.6H51C52,0.6,52.7,1.3,52.7,2.2z"/>
	<line class="st2" x1="14.6" y1="0.6" x2="14.6" y2="31.9"/>
	<g>
		<path d="M8.3,3.3C8.7,3.3,9,3.6,9,4v24.7c0,0.4-0.3,0.7-0.7,0.7H1.7c-0.4,0-0.7-0.3-0.7-0.7V4c0-0.4,0.3-0.7,0.7-0.7L8.3,3.3
			 M8.3,2.3H1.7C0.8,2.3,0,3,0,4v24.7c0,1,0.8,1.7,1.7,1.7h6.6c0.9,0,1.7-0.8,1.7-1.7V4C10,3,9.3,2.3,8.3,2.3L8.3,2.3z"/>
	</g>
	<polyline class="st2" points="9.2,5.6 2.9,5.6 2.9,26.9 9.2,26.9 	"/>
	<g>
		<path class="st2" d="M9.2,7.6H7.5C6.7,7.6,6,8.3,6,9.1v4.7c0,0.8,0.7,1.5,1.5,1.5h2"/>
		<path class="st2" d="M9.2,17.2H7.5c-0.8,0-1.5,0.7-1.5,1.5v4.7c0,0.8,0.7,1.5,1.5,1.5h2"/>
	</g>
</g>
</svg>
