<?xml version="1.0" encoding="utf-8"?>
<!-- Generator: Adobe Illustrator 24.3.0, SVG Export Plug-In . SVG Version: 6.00 Build 0)  -->
<svg width="300" height="200" version="1.1" id="Layer_1" xmlns="http://www.w3.org/2000/svg" xmlns:xlink="http://www.w3.org/1999/xlink" x="0px" y="0px"
	 viewBox="0 0 53.2 32.5" style="enable-background:new 0 0 53.2 32.5;" xml:space="preserve">
<style type="text/css">
	.st0{display:none;}
	.st1{display:inline;}
	.st2{fill:none;stroke:#000000;stroke-miterlimit:10;}
</style>
<g id="Layer_1_2_" class="st0">
	<g id="Layer_1_1_" class="st1">
		<g>
			<path d="M1-3.6c8.5,0.2,15.3,3,20.2,8.4c9.5,10.3,9.4,27.2,9.3,31.3H1V-3.6 M0-4.6v41.7h31.4C31.4,37.1,34.9-4.6,0-4.6L0-4.6z"/>
		</g>
		<g>
			<path d="M60.4-3.6v39.7H31.7C31.5,32,31.5,14.8,41,4.5C45.8-0.7,52.3-3.4,60.4-3.6 M61.4-4.6c-34,0-30.6,41.7-30.6,41.7h30.6
				V-4.6L61.4-4.6z"/>
		</g>
		<path class="st2" d="M0.5,3.2"/>
		<path class="st2" d="M0.5,29.3"/>
	</g>
	<g id="Layer_2_1_" class="st1">
	</g>
</g>
<g id="Layer_2_2_">
	<path class="st2" d="M52.7,2.2v28.2c0,0.3-0.1,0.7-0.3,0.9l0,0c-0.3,0.4-0.7,0.6-1.2,0.6H11.1c-0.9,0-1.6-0.7-1.6-1.6V2.2
		c0-0.9,0.7-1.6,1.6-1.6H51C52,0.6,52.7,1.3,52.7,2.2z"/>
	<line class="st2" x1="14.6" y1="0.6" x2="14.6" y2="31.9"/>
	<g>
		<path d="M8.3,3.3C8.7,3.3,9,3.6,9,4v24.7c0,0.4-0.3,0.7-0.7,0.7H1.7c-0.4,0-0.7-0.3-0.7-0.7V4c0-0.4,0.3-0.7,0.7-0.7L8.3,3.3
			 M8.3,2.3H1.7C0.8,2.3,0,3,0,4v24.7c0,1,0.8,1.7,1.7,1.7h6.6c0.9,0,1.7-0.8,1.7-1.7V4C10,3,9.3,2.3,8.3,2.3L8.3,2.3z"/>
	</g>
	<polyline class="st2" points="9.2,5.6 2.9,5.6 2.9,26.9 9.2,26.9 	"/>
	<g>
		<path class="st2" d="M9.2,7.6H7.5C6.7,7.6,6,8.3,6,9.1v4.7c0,0.8,0.7,1.5,1.5,1.5h2"/>
		<path class="st2" d="M9.2,17.2H7.5c-0.8,0-1.5,0.7-1.5,1.5v4.7c0,0.8,0.7,1.5,1.5,1.5h2"/>
	</g>
	<path d="M26.7,8.1c-0.1,0.4-0.4,0.7-0.8,0.8C25.6,9,25.3,8.8,25,8.7c-0.1-0.1-0.3-0.1-0.4-0.2c0.1,0.1,0.1,0.2,0.2,0.4
		c0.1,0.3,0.3,0.6,0.2,1c-0.1,0.4-0.5,0.7-0.9,0.7s-0.8-0.3-0.9-0.8c-0.1-0.3-0.1-0.6-0.1-0.9L23,9c-0.1,0.2-0.3,0.4-0.4,0.6
		c-0.3,0.4-1,0.5-1.4,0.1s-0.4-1,0.1-1.4C21.5,8.1,21.8,8,22,7.8c-0.3,0-0.6-0.1-0.8-0.1c-0.4-0.1-0.7-0.3-0.8-0.6
		c-0.1-0.4,0-0.7,0.3-1s0.6-0.3,1-0.2C22,6,22.2,6.1,22.5,6.3c-0.1-0.1-0.1-0.3-0.2-0.4C22.1,5.6,22,5.4,22,5.1
		c0-0.5,0.4-0.9,0.9-0.9s0.9,0.3,1,0.8c0,0.3,0.1,0.6,0.1,0.9c0.2-0.2,0.3-0.5,0.5-0.7c0.2-0.3,0.6-0.4,0.9-0.4
		c0.4,0.1,0.6,0.3,0.7,0.7s0,0.7-0.3,1c-0.2,0.2-0.4,0.3-0.7,0.5c0.2,0,0.4,0,0.6,0.1c0.5,0,0.9,0.3,1,0.8C26.7,7.9,26.7,8,26.7,8.1
		z"/>
	<path d="M43.2,27.2c-0.1,0.2-0.2,0.3-0.4,0.4c-0.1,0-0.3,0-0.4-0.1c-0.1,0-0.1-0.1-0.2-0.1c0,0.1,0.1,0.1,0.1,0.2
		c0.1,0.1,0.1,0.3,0.1,0.5c-0.1,0.2-0.2,0.3-0.4,0.3s-0.4-0.2-0.4-0.4c0-0.1,0-0.3-0.1-0.4c0,0,0,0,0,0.1c-0.1,0.1-0.1,0.2-0.2,0.3
		c-0.2,0.2-0.5,0.2-0.7,0s-0.2-0.5,0-0.7c0.1-0.1,0.2-0.2,0.3-0.2c-0.1,0-0.3,0-0.4,0c-0.2,0-0.3-0.1-0.4-0.3
		c-0.1-0.2,0-0.3,0.1-0.5c0.1-0.1,0.3-0.2,0.5-0.1c0.1,0,0.2,0.1,0.4,0.2c0-0.1-0.1-0.1-0.1-0.2c-0.1-0.1-0.1-0.2-0.1-0.4
		c0-0.2,0.2-0.4,0.4-0.4s0.4,0.1,0.5,0.4c0,0.1,0,0.3,0,0.4c0.1-0.1,0.2-0.2,0.2-0.3c0.1-0.1,0.3-0.2,0.4-0.2c0.2,0,0.3,0.2,0.3,0.3
		c0,0.2,0,0.3-0.2,0.5c-0.1,0.1-0.2,0.2-0.3,0.2c0.1,0,0.2,0,0.3,0c0.3,0,0.4,0.1,0.5,0.4C43.2,27.1,43.2,27.2,43.2,27.2z"/>
	<path d="M45.8,17.8c-0.2,0.8-0.7,1.4-1.6,1.5c-0.6,0.1-1.1-0.2-1.7-0.4c-0.3-0.1-0.5-0.3-0.8-0.3c0.1,0.2,0.3,0.5,0.4,0.7
		c0.3,0.6,0.6,1.2,0.4,1.9c-0.2,0.8-1,1.4-1.8,1.4c-0.9,0-1.6-0.6-1.8-1.5c-0.1-0.6-0.1-1.2-0.2-1.8c-0.1,0.1-0.1,0.1-0.2,0.2
		c-0.3,0.4-0.5,0.8-0.8,1.2c-0.7,0.8-2,0.9-2.7,0.1c-0.8-0.8-0.7-2,0.1-2.7c0.4-0.4,0.9-0.7,1.4-1c-0.6-0.1-1.1-0.1-1.6-0.2
		c-0.8-0.1-1.3-0.5-1.5-1.3c-0.2-0.7-0.1-1.4,0.5-1.9s1.2-0.6,2-0.4c0.5,0.2,1,0.4,1.6,0.7c-0.1-0.3-0.3-0.5-0.4-0.7
		c-0.2-0.5-0.5-1-0.5-1.6c0.1-0.9,0.8-1.7,1.7-1.8c1-0.1,1.8,0.6,2,1.6c0.1,0.5,0.1,1.1,0.2,1.7c0.3-0.5,0.6-0.9,1-1.3
		c0.5-0.6,1.1-0.9,1.9-0.7c0.8,0.2,1.2,0.6,1.4,1.4c0.2,0.8-0.1,1.4-0.7,1.9c-0.4,0.3-0.9,0.6-1.3,1c0.5,0,0.9,0.1,1.3,0.1
		c1,0.1,1.7,0.6,2,1.6C45.8,17.4,45.8,17.6,45.8,17.8z"/>
	<path d="M37.2,4v0.4c-0.2,0.5-0.5,0.9-1,1c-0.4,0.1-0.8-0.1-1.1-0.3c-0.2-0.1-0.3-0.2-0.5-0.2c0.1,0.2,0.2,0.3,0.2,0.5
		C35,5.8,35.2,6.2,35,6.6c-0.2,0.5-0.7,0.9-1.2,0.9c-0.6,0-1.1-0.4-1.1-1c-0.1-0.4-0.1-0.8-0.1-1.2l-0.1,0.1
		c-0.2,0.2-0.4,0.5-0.6,0.8c-0.5,0.5-1.3,0.6-1.8,0.1S29.6,5,30.2,4.5c0.1-0.1,0.4-0.3,0.8-0.6c-0.4,0-0.7-0.1-1.1-0.1
		c-0.5-0.1-0.8-0.3-1-0.8s0-0.9,0.3-1.3c0.4-0.3,0.8-0.4,1.3-0.2c0.3,0.1,0.7,0.3,1,0.5c-0.1-0.2-0.2-0.3-0.2-0.5
		C31.2,1.1,31,0.9,31,0.6h2.5c0,0.3,0.1,0.5,0.1,0.8c0.2-0.3,0.4-0.6,0.6-0.8h2c0.1,0.1,0.1,0.2,0.2,0.4c0.1,0.5,0,0.9-0.5,1.2
		c-0.3,0.2-0.6,0.4-0.9,0.7c0.3,0,0.6,0.1,0.8,0.1C36.5,3,37,3.3,37.2,4z"/>
	<path d="M36.5,30.1c-0.1,0.3-0.3,0.6-0.6,0.6s-0.5-0.1-0.7-0.2c-0.1,0-0.2-0.1-0.3-0.1c0,0.1,0.1,0.2,0.1,0.3
		c0.1,0.2,0.2,0.5,0.2,0.8c-0.1,0.3-0.4,0.6-0.8,0.6c-0.4,0-0.7-0.3-0.7-0.6c0-0.2-0.1-0.5-0.1-0.7l-0.1,0.1
		c-0.1,0.2-0.2,0.3-0.3,0.5c-0.3,0.3-0.8,0.4-1.1,0.1c-0.3-0.3-0.3-0.8,0-1.1c0.2-0.1,0.4-0.3,0.6-0.4c-0.2,0-0.4,0-0.7-0.1
		c-0.3,0-0.5-0.2-0.6-0.5s0-0.6,0.2-0.8s0.5-0.3,0.8-0.2c0.2,0.1,0.4,0.2,0.6,0.3c-0.1-0.1-0.1-0.2-0.1-0.3
		c-0.1-0.2-0.2-0.4-0.2-0.6c0-0.4,0.3-0.7,0.7-0.7s0.7,0.2,0.8,0.6c0,0.2,0.1,0.4,0.1,0.7c0.1-0.2,0.3-0.4,0.4-0.5
		c0.2-0.2,0.5-0.3,0.8-0.3c0.3,0.1,0.5,0.3,0.6,0.6s0,0.6-0.3,0.8c-0.2,0.1-0.3,0.3-0.5,0.4c0.2,0,0.4,0,0.5,0
		c0.4,0,0.7,0.2,0.8,0.6C36.5,29.9,36.5,30,36.5,30.1z"/>
	<path d="M52.7,27.5v2.9c0,0.3-0.1,0.7-0.3,0.9c0,0,0,0-0.1,0c0,0,0,0,0,0.1C52,31.8,51.6,32,51.1,32h-0.3c0-0.1,0-0.2,0-0.3
		l-0.1,0.1c0,0.1-0.1,0.1-0.1,0.2h-2c-0.1-0.3,0-0.7,0.3-0.9c0.2-0.2,0.5-0.3,0.7-0.5c-0.3,0-0.5,0-0.8-0.1c-0.4,0-0.7-0.3-0.8-0.6
		c-0.1-0.4,0-0.7,0.2-1c0.3-0.3,0.6-0.3,1-0.2c0.3,0.1,0.5,0.2,0.8,0.3l-0.2-0.4c-0.1-0.3-0.2-0.5-0.2-0.8c0-0.5,0.4-0.9,0.9-0.9
		s0.9,0.3,1,0.8c0,0.3,0.1,0.6,0.1,0.8c0.2-0.2,0.3-0.5,0.5-0.7C52.2,27.6,52.4,27.5,52.7,27.5z"/>
	<path d="M51.7,2.1v0.3c-0.1,0.4-0.4,0.7-0.8,0.8c-0.3,0-0.6-0.1-0.8-0.2c-0.1-0.1-0.3-0.1-0.4-0.2c0.1,0.1,0.1,0.2,0.2,0.4
		c0.1,0.3,0.3,0.6,0.2,1c-0.1,0.4-0.5,0.7-0.9,0.7s-0.8-0.3-0.9-0.8c0-0.3-0.1-0.6-0.1-0.9l-0.1,0.1c-0.1,0.2-0.3,0.4-0.4,0.6
		c-0.4,0.4-1,0.5-1.4,0.1s-0.4-1,0-1.4c0.2-0.2,0.5-0.3,0.7-0.5c-0.3,0-0.5,0-0.8-0.1c-0.4-0.1-0.7-0.3-0.8-0.6
		c-0.1-0.3-0.1-0.6,0.1-0.8H51c-0.1,0.1-0.1,0.1-0.2,0.2c-0.2,0.2-0.4,0.3-0.7,0.5c0.2,0,0.4,0,0.7,0C51.2,1.4,51.5,1.6,51.7,2.1z"
		/>
	<path d="M49.6,13.9c-0.2,0.2-0.4,0.3-0.5,0.4c-0.3,0.2-0.6,0.3-0.9,0.2c-0.3-0.1-0.5-0.4-0.6-0.7c0-0.4,0.1-0.7,0.5-0.8
		c0.2-0.1,0.4-0.2,0.6-0.3h0.1c-0.1,0-0.1,0-0.2-0.1c-0.2-0.1-0.5-0.2-0.7-0.3c-0.4-0.3-0.5-0.8-0.2-1.2c0.3-0.4,0.8-0.5,1.2-0.2
		c0.2,0.1,0.3,0.3,0.5,0.4l0.1,0.1c0-0.3-0.1-0.5-0.1-0.8c-0.1-0.5,0.3-0.9,0.8-0.9s0.9,0.4,0.9,0.9c0,0.3-0.1,0.5-0.1,0.8l0.1-0.1
		c0.2-0.2,0.4-0.4,0.6-0.5c0.4-0.2,0.9,0,1.1,0.4c0.2,0.4,0.1,0.9-0.4,1.1c-0.2,0.1-0.5,0.2-0.8,0.3h0.1c0.3,0.1,0.5,0.2,0.8,0.3
		c0.4,0.2,0.5,0.8,0.2,1.1c-0.3,0.4-0.8,0.5-1.2,0.3c-0.2-0.1-0.4-0.3-0.6-0.5l0,0c0,0.2,0.1,0.4,0.1,0.6c0.1,0.4,0,0.7-0.3,0.9
		c-0.3,0.2-0.6,0.2-0.9,0.1c-0.3-0.1-0.5-0.4-0.5-0.7c0-0.3,0.1-0.6,0.1-0.8C49.6,14,49.6,14,49.6,13.9z M51.3,12.7c0-0.5-0.4-1-1-1
		c-0.5,0-1,0.4-1,1c0,0.5,0.4,1,1,1C50.8,13.6,51.3,13.2,51.3,12.7z"/>
	<path d="M19.8,28.4c-0.2,0.2-0.4,0.4-0.7,0.6c-0.3,0.3-0.7,0.4-1.1,0.2s-0.7-0.5-0.7-0.9c0-0.5,0.2-0.8,0.6-1.1
		c0.3-0.1,0.5-0.2,0.8-0.3c0,0,0.1,0,0.2-0.1c-0.1,0-0.2-0.1-0.3-0.1c-0.3-0.1-0.6-0.2-0.9-0.4c-0.5-0.3-0.6-1-0.3-1.5
		c0.3-0.5,1-0.6,1.5-0.3c0.2,0.2,0.4,0.3,0.6,0.5c0.1,0,0.1,0.1,0.2,0.1c-0.1-0.3-0.1-0.7-0.2-1c-0.1-0.6,0.4-1.2,1-1.2
		s1.1,0.5,1.1,1.1c0,0.3-0.1,0.7-0.1,1l0.1-0.1c0.3-0.2,0.5-0.4,0.8-0.6c0.5-0.3,1.1,0,1.4,0.5s0.1,1.2-0.5,1.4
		c-0.3,0.2-0.6,0.3-1,0.4h0.1c0.3,0.1,0.7,0.2,1,0.4c0.5,0.3,0.6,1,0.3,1.4c-0.3,0.5-1,0.7-1.5,0.3c-0.3-0.2-0.5-0.4-0.8-0.6
		c0,0,0,0-0.1,0c0.1,0.3,0.1,0.5,0.1,0.8c0.1,0.5,0,0.9-0.4,1.1c-0.3,0.2-0.7,0.3-1.1,0.1s-0.6-0.4-0.6-0.9c0-0.3,0.1-0.7,0.1-1
		C19.8,28.6,19.8,28.5,19.8,28.4z M21.9,26.9c0-0.7-0.6-1.2-1.2-1.2c-0.7,0-1.2,0.5-1.2,1.2s0.5,1.2,1.2,1.2
		C21.3,28.1,21.9,27.6,21.9,26.9z"/>
	<path d="M17.6,15.8c-0.3-0.3-0.4-0.6-0.3-1s0.4-0.6,0.8-0.6c-0.1-0.4,0-0.7,0.3-1c0.3-0.2,0.7-0.2,1,0c0.2-0.4,0.4-0.6,0.9-0.6
		c0.4,0,0.6,0.2,0.8,0.6c0.3-0.2,0.7-0.3,1,0c0.3,0.2,0.4,0.6,0.3,1c0.4,0,0.7,0.2,0.8,0.6c0.1,0.4,0,0.7-0.3,1
		c0.3,0.3,0.5,0.6,0.3,1c-0.1,0.4-0.4,0.6-0.8,0.6c0.2,1-0.8,1.4-1.4,1c-0.2,0.4-0.4,0.6-0.8,0.6s-0.7-0.2-0.8-0.6
		c-0.7,0.5-1.6-0.1-1.4-1C17.2,17.1,17,16.5,17.6,15.8z M20.3,16.9c0.6,0,1.1-0.5,1.1-1.1s-0.5-1.1-1.1-1.1s-1.1,0.5-1.1,1.1
		C19.2,16.4,19.7,16.9,20.3,16.9z"/>
	<path d="M26,18.4c-0.2-0.1-0.2-0.3-0.2-0.5c0.1-0.2,0.2-0.3,0.5-0.3c0-0.2,0-0.4,0.2-0.5s0.4-0.1,0.6,0c0.1-0.2,0.2-0.3,0.5-0.3
		c0.2,0,0.4,0.1,0.4,0.3c0.2-0.1,0.4-0.1,0.6,0s0.2,0.3,0.2,0.5c0.2,0,0.4,0.1,0.5,0.3c0.1,0.2,0,0.4-0.2,0.5
		c0.2,0.1,0.3,0.3,0.2,0.5c-0.1,0.2-0.2,0.3-0.5,0.3c0.1,0.6-0.4,0.8-0.7,0.5C28,19.9,27.9,20,27.6,20c-0.2,0-0.4-0.1-0.4-0.3
		c-0.4,0.2-0.9-0.1-0.7-0.5C25.7,19.2,25.6,18.8,26,18.4z M27.4,19c0.3,0,0.6-0.2,0.6-0.6c0-0.3-0.3-0.6-0.6-0.6
		c-0.3,0-0.6,0.3-0.6,0.6C26.8,18.7,27.1,19,27.4,19z"/>
</g>
</svg>
