<?xml version="1.0" encoding="utf-8"?>
<!-- Generator: Adobe Illustrator 24.3.0, SVG Export Plug-In . SVG Version: 6.00 Build 0)  -->
<svg width="300" height="200" version="1.1" id="Layer_1" xmlns="http://www.w3.org/2000/svg" xmlns:xlink="http://www.w3.org/1999/xlink" x="0px" y="0px"
	 viewBox="0 0 40.9 22.5" style="enable-background:new 0 0 40.9 22.5;" xml:space="preserve">
<style type="text/css">
	.st0{display:none;}
	.st1{display:inline;}
	.st2{display:inline;fill:none;stroke:#000000;stroke-miterlimit:10;}
	.st3{fill:none;stroke:#000000;stroke-miterlimit:10;}
	.st4{fill:none;stroke:#000000;stroke-linejoin:round;stroke-miterlimit:10;}
	.st5{fill:none;stroke:#000000;stroke-width:0.75;stroke-miterlimit:10;}
	.st6{fill:none;stroke:#000000;stroke-width:0.75;stroke-linejoin:round;stroke-miterlimit:10;}
</style>
<g id="Layer_1_1_" class="st0">
	<g class="st1">
		<path d="M0.5-8.6c8.5,0.2,15.3,3,20.2,8.4C30.2,10.1,30.1,27,30,31.1H0.5V-8.6 M-0.5-9.6v41.7h31.4C30.9,32.1,34.4-9.6-0.5-9.6
			L-0.5-9.6z"/>
	</g>
	<g class="st1">
		<path d="M59.9-8.6v39.7H31.2C31,27,31,9.8,40.5-0.5C45.3-5.7,51.8-8.4,59.9-8.6 M60.9-9.6c-34,0-30.6,41.7-30.6,41.7h30.6V-9.6
			L60.9-9.6z"/>
	</g>
	<path class="st2" d="M0-1.8"/>
	<path class="st2" d="M0,24.3"/>
</g>
<g id="Layer_2_1_">
	<g>
		<g>
			<path class="st3" d="M34.5,19.6H6.4c-3.2,0-5.8-2.6-5.8-5.8V8.7c0-3.2,2.6-5.8,5.8-5.8h28.1c3.2,0,5.8,2.6,5.8,5.8v5.1
				C40.3,17,37.7,19.6,34.5,19.6z"/>
			<path class="st4" d="M4.9,19.5l3.4-2.7v-11L4.4,3.2C4.4,3.2,3.6,13.8,4.9,19.5z"/>
			<rect x="8.3" y="5.8" class="st3" width="14.8" height="10.9"/>
			<path class="st3" d="M23.1,5.8l6.3-2.6c0,0,4.5,7.3,0,16.3l-6.3-2.8C23.1,16.7,23.1,5.8,23.1,5.8z"/>
		</g>
		<path class="st5" d="M19.4,14.9h-1.3c-0.4,0-0.7-0.3-0.7-0.7V8.3c0-0.4,0.3-0.7,0.7-0.7h1.3c0.4,0,0.7,0.3,0.7,0.7v5.9
			C20.1,14.6,19.8,14.9,19.4,14.9z"/>
		<g>
			<path class="st6" d="M27.3,2.9c0,0,0.4-2.5-1.9-2.5v2.5"/>
			<path class="st6" d="M27.3,19.6c0,0,0.4,2.5-1.9,2.5v-2.5"/>
		</g>
		<g>
			<path class="st6" d="M38.4,6.7c0,0-0.4-2-3-2.5C32.9,3.6,34.5,6.6,38.4,6.7z"/>
			<path class="st6" d="M38.4,15.8c0,0-0.4,2-3,2.5C32.9,18.9,34.5,15.9,38.4,15.8z"/>
		</g>
	</g>
</g>
</svg>
