<?xml version="1.0" encoding="utf-8"?>
<!-- Generator: Adobe Illustrator 24.3.0, SVG Export Plug-In . SVG Version: 6.00 Build 0)  -->
<svg width="300" height="200" version="1.1" id="Layer_1" xmlns="http://www.w3.org/2000/svg" xmlns:xlink="http://www.w3.org/1999/xlink" x="0px" y="0px"
	 viewBox="0 0 38 30.5" style="enable-background:new 0 0 38 30.5;" xml:space="preserve">
<style type="text/css">
	.st0{display:none;}
	.st1{display:inline;}
	.st2{display:inline;fill:none;stroke:#000000;stroke-miterlimit:10;}
	.st3{fill:none;stroke:#000000;stroke-width:2;stroke-miterlimit:10;}
	.st4{fill:none;stroke:#000000;stroke-width:2;stroke-linecap:round;stroke-miterlimit:10;}
</style>
<g id="Layer_1_1_" class="st0">
	<g class="st1">
		<path d="M1-4.6c8.5,0.2,15.3,3,20.2,8.4c9.5,10.3,9.4,27.2,9.3,31.3H1V-4.6 M0-5.6v41.7h31.4C31.4,36.1,34.9-5.6,0-5.6L0-5.6z"/>
	</g>
	<g class="st1">
		<path d="M60.4-4.6v39.7H31.7C31.5,31,31.5,13.8,41,3.5C45.8-1.7,52.3-4.4,60.4-4.6 M61.4-5.6c-34,0-30.6,41.7-30.6,41.7h30.6V-5.6
			L61.4-5.6z"/>
	</g>
	<path class="st2" d="M0.5,2.2"/>
	<path class="st2" d="M0.5,28.3"/>
</g>
<g id="Layer_2_1_">
	<g>
		<circle class="st3" cx="22.8" cy="15.3" r="14.1"/>
	</g>
	<path class="st4" d="M6.4,1.2c0,0-11.3,13.8,0,28.2"/>
</g>
</svg>
