<?xml version="1.0" encoding="utf-8"?>
<!-- Generator: Adobe Illustrator 24.3.0, SVG Export Plug-In . SVG Version: 6.00 Build 0)  -->
<svg width="300" height="200" version="1.1" id="Layer_1" xmlns="http://www.w3.org/2000/svg" xmlns:xlink="http://www.w3.org/1999/xlink" x="0px" y="0px"
	 viewBox="0 0 46.4 22" style="enable-background:new 0 0 46.4 22;" xml:space="preserve">
<style type="text/css">
	.st0{display:none;}
	.st1{display:inline;}
	.st2{display:inline;fill:none;stroke:#000000;stroke-miterlimit:10;}
	.st3{fill:none;stroke:#000000;stroke-width:2;stroke-miterlimit:10;}
</style>
<g id="Layer_1_1_" class="st0">
	<g class="st1">
		<path d="M1-8.9c8.5,0.2,15.3,3,20.2,8.4c9.5,10.3,9.4,27.2,9.3,31.3H1V-8.9 M0-9.9v41.7h31.4C31.4,31.8,34.9-9.9,0-9.9L0-9.9z"/>
	</g>
	<g class="st1">
		<path d="M60.4-8.9v39.7H31.7C31.5,26.7,31.5,9.5,41-0.8C45.8-6,52.3-8.7,60.4-8.9 M61.4-9.9c-34,0-30.6,41.7-30.6,41.7h30.6V-9.9
			L61.4-9.9z"/>
	</g>
	<path class="st2" d="M0.5-2.1"/>
	<path class="st2" d="M0.5,24"/>
</g>
<g id="Layer_2_1_" class="st0">
</g>
<g id="Layer_3">
	<g>
		<g>
			<path d="M44.4,2v3.7H2V2H44.4 M45,0H1.4C0.6,0,0,0.6,0,1.4v4.9c0,0.8,0.6,1.4,1.4,1.4H45c0.8,0,1.4-0.6,1.4-1.4V1.4
				C46.4,0.6,45.7,0,45,0L45,0z"/>
		</g>
		<g>
			<path d="M13.5,8.9v11H2v-11H13.5 M13.7,6.9H1.8C0.8,6.9,0,7.7,0,8.7v11.5c0,1,0.8,1.8,1.8,1.8h11.9c1,0,1.8-0.8,1.8-1.8V8.7
				C15.5,7.7,14.7,6.9,13.7,6.9L13.7,6.9z"/>
		</g>
		<g>
			<path d="M30.5,8.9v11H15.9v-11H30.5 M30.5,6.9H15.8c-1.1,0-1.9,0.9-1.9,1.9V20c0,1.1,0.9,1.9,1.9,1.9h14.7c1.1,0,1.9-0.9,1.9-1.9
				V8.8C32.5,7.8,31.6,6.9,30.5,6.9L30.5,6.9z"/>
		</g>
		<g>
			<path d="M44.4,8.9v11H32.9v-11H44.4 M44.6,6.9H32.7c-1,0-1.8,0.8-1.8,1.8v11.5c0,1,0.8,1.8,1.8,1.8h11.9c1,0,1.8-0.8,1.8-1.8V8.7
				C46.4,7.7,45.6,6.9,44.6,6.9L44.6,6.9z"/>
		</g>
		<path class="st3" d="M4.1,8.4v7.7c0,1.1-0.9,2-2,2h-1"/>
		<path class="st3" d="M41.9,8.4v7.7c0,1.1,0.9,2,2,2h1"/>
	</g>
</g>
</svg>
