<?xml version="1.0" encoding="utf-8"?>
<!-- Generator: Adobe Illustrator 24.3.0, SVG Export Plug-In . SVG Version: 6.00 Build 0)  -->
<svg width="300" height="200" version="1.1" id="Layer_1" xmlns="http://www.w3.org/2000/svg" xmlns:xlink="http://www.w3.org/1999/xlink" x="0px" y="0px"
	 viewBox="0 0 61.4 41.7" style="enable-background:new 0 0 61.4 41.7;" xml:space="preserve">
<g>
	<path d="M1,1c8.5,0.2,15.3,3,20.2,8.4c9.5,10.3,9.4,27.2,9.3,31.3H1V1 M0,0v41.7h31.4C31.4,41.7,34.9,0,0,0L0,0z"/>
</g>
<g>
	<path d="M60.4,1v39.7H31.7c-0.2-4.1-0.2-21.3,9.3-31.6C45.8,3.9,52.3,1.2,60.4,1 M61.4,0c-34,0-30.6,41.7-30.6,41.7h30.6V0L61.4,0z
		"/>
</g>
</svg>
