<?xml version="1.0" encoding="utf-8"?>
<!-- Generator: Adobe Illustrator 24.3.0, SVG Export Plug-In . SVG Version: 6.00 Build 0)  -->
<svg width="300" height="200" version="1.1" id="Layer_1" xmlns="http://www.w3.org/2000/svg" xmlns:xlink="http://www.w3.org/1999/xlink" x="0px" y="0px"
	 viewBox="0 0 35.1 35.1" style="enable-background:new 0 0 35.1 35.1;" xml:space="preserve">
<style type="text/css">
	.st0{display:none;}
	.st1{display:inline;}
	.st2{fill:none;stroke:#000000;stroke-miterlimit:10;}
</style>
<g class="st0">
	<path class="st1" d="M1-2.3c8.5,0.2,15.3,3,20.2,8.4c9.5,10.3,9.4,27.2,9.3,31.3H1V-2.3 M0-3.3v41.7h31.4C31.4,38.4,34.9-3.3,0-3.3
		L0-3.3z"/>
</g>
<g class="st0">
	<path class="st1" d="M60.4-2.3v39.7H31.7c-0.2-4.1-0.2-21.3,9.3-31.6C45.8,0.6,52.3-2.1,60.4-2.3 M61.4-3.3
		c-34,0-30.6,41.7-30.6,41.7h30.6V-3.3L61.4-3.3z"/>
</g>
<g>
	<g>
		<path d="M34.1,1v33.1H1V1H34.1 M35.1,0H0v35.1h35.1V0L35.1,0z"/>
	</g>
	<g>
		<path d="M34.1,4.5v26H8v-26L34.1,4.5 M35.1,3.5H7v28h28L35.1,3.5L35.1,3.5z"/>
	</g>
</g>
<ellipse class="st2" cx="24.2" cy="17.6" rx="1.6" ry="2.8"/>
<g>
	<rect x="3" y="16.7" width="11.3" height="1.7"/>
	<rect x="3" y="15.8" width="1.8" height="3.5"/>
</g>
</svg>
