<?xml version="1.0" encoding="utf-8"?>
<!-- Generator: Adobe Illustrator 24.3.0, SVG Export Plug-In . SVG Version: 6.00 Build 0)  -->
<svg width="300" height="200" version="1.1" id="Layer_1" xmlns="http://www.w3.org/2000/svg" xmlns:xlink="http://www.w3.org/1999/xlink" x="0px" y="0px"
	 viewBox="0 0 56.8 28.4" style="enable-background:new 0 0 56.8 28.4;" xml:space="preserve">
<style type="text/css">
	.st0{display:none;}
	.st1{display:inline;}
	.st2{display:inline;fill:none;stroke:#000000;stroke-miterlimit:10;}
	.st3{fill:none;stroke:#000000;stroke-width:2;stroke-linecap:round;stroke-miterlimit:10;}
	.st4{fill:none;stroke:#000000;stroke-linecap:round;stroke-miterlimit:10;}
</style>
<g id="Layer_1_1_" class="st0">
	<g class="st1">
		<path d="M0-5.7c8.5,0.2,15.3,3,20.2,8.4C29.7,13,29.6,29.9,29.5,34H0V-5.7 M-1-6.7V35h31.4C30.4,35,33.9-6.7-1-6.7L-1-6.7z"/>
	</g>
	<g class="st1">
		<path d="M59.4-5.7V34H30.7c-0.2-4.1-0.2-21.3,9.3-31.6C44.8-2.8,51.3-5.5,59.4-5.7 M60.4-6.7C26.4-6.7,29.8,35,29.8,35h30.6V-6.7
			L60.4-6.7z"/>
	</g>
	<path class="st2" d="M-0.5,1.1"/>
	<path class="st2" d="M-0.5,27.2"/>
</g>
<g>
	<line class="st3" x1="1" y1="1.1" x2="55.6" y2="1.1"/>
	<line class="st3" x1="1" y1="27.2" x2="55.6" y2="27.2"/>
</g>
<line class="st4" x1="3.7" y1="1.1" x2="3.7" y2="27.2"/>
<line class="st4" x1="9.2" y1="1.1" x2="9.2" y2="27.2"/>
<line class="st4" x1="14.6" y1="1.1" x2="14.6" y2="27.2"/>
<path class="st4" d="M49.4,27.2"/>
<path class="st4" d="M49.4,1.1"/>
<line class="st4" x1="52.9" y1="1.1" x2="52.9" y2="27.2"/>
<path class="st4" d="M44.8,27.2"/>
<path class="st4" d="M44.8,1.1"/>
<line class="st4" x1="47.4" y1="1.1" x2="47.4" y2="27.2"/>
<line class="st4" x1="42" y1="1.1" x2="42" y2="27.2"/>
<line class="st4" x1="36.5" y1="1.1" x2="36.5" y2="27.2"/>
<line class="st4" x1="25.6" y1="1.1" x2="25.6" y2="27.2"/>
<line class="st4" x1="31" y1="1.1" x2="31" y2="27.2"/>
<line class="st4" x1="20.1" y1="1.1" x2="20.1" y2="27.2"/>
</svg>
