<?xml version="1.0" encoding="utf-8"?>
<!-- Generator: Adobe Illustrator 24.3.0, SVG Export Plug-In . SVG Version: 6.00 Build 0)  -->
<svg width="300" height="200" version="1.1" id="Layer_1" xmlns="http://www.w3.org/2000/svg" xmlns:xlink="http://www.w3.org/1999/xlink" x="0px" y="0px"
	 viewBox="0 0 26 33.9" style="enable-background:new 0 0 26 33.9;" xml:space="preserve" >
<style type="text/css">
	.st0{display:none;}
	.st1{display:inline;}
	.st2{fill:none;stroke:#000000;stroke-miterlimit:10;}
</style>
<g class="st0">
	<path class="st1" d="M1-2.9c8.5,0.2,15.3,3,20.2,8.4c9.5,10.3,9.4,27.2,9.3,31.3H1V-2.9 M0-3.9v41.7h31.4C31.4,37.8,34.9-3.9,0-3.9
		L0-3.9z"/>
</g>
<g class="st0">
	<path class="st1" d="M60.4-2.9v39.7H31.7c-0.2-4.1-0.2-21.3,9.3-31.6C45.8,0,52.3-2.7,60.4-2.9 M61.4-3.9
		c-34,0-30.6,41.7-30.6,41.7h30.6V-3.9L61.4-3.9z"/>
</g>
<path class="st2" d="M0.5,3.9"/>
<path class="st2" d="M0.5,30"/>
<g>
	<g>
		<path d="M25,1v31.8H1V1H25 M26,0H0v33.8h26V0L26,0z"/>
	</g>
</g>
<line class="st2" x1="20.7" y1="0.8" x2="20.7" y2="33.2"/>
<g>
	<ellipse class="st2" cx="23" cy="7.1" rx="0.9" ry="2"/>
	<ellipse class="st2" cx="23" cy="26.8" rx="0.9" ry="2"/>
</g>
<path class="st2" d="M23,17.8L23,17.8c-0.1,0-0.3-0.1-0.3-0.3v-1.2c0-0.1,0.1-0.3,0.3-0.3l0,0c0.1,0,0.3,0.1,0.3,0.3v1.2
	C23.3,17.7,23.2,17.8,23,17.8z"/>
<g>
	<circle class="st2" cx="10.1" cy="8.5" r="5.4"/>
	<circle class="st2" cx="10.1" cy="25.4" r="5.4"/>
</g>
</svg>
