<?xml version="1.0" encoding="utf-8"?>
<!-- Generator: Adobe Illustrator 24.3.0, SVG Export Plug-In . SVG Version: 6.00 Build 0)  -->
<svg width="300" height="200" version="1.1" id="Layer_1" xmlns="http://www.w3.org/2000/svg" xmlns:xlink="http://www.w3.org/1999/xlink" x="0px" y="0px"
	 viewBox="0 0 41.6 22.1" style="enable-background:new 0 0 41.6 22.1;" xml:space="preserve">
<style type="text/css">
	.st0{display:none;}
	.st1{display:inline;}
	.st2{display:inline;fill:none;stroke:#000000;stroke-miterlimit:10;}
</style>
<g id="Layer_1_1_" class="st0">
	<g class="st1">
		<path d="M-8-8.8c8.5,0.2,15.3,3,20.2,8.4c9.5,10.3,9.4,27.2,9.3,31.3H-8V-8.8 M-9-9.8v41.7h31.4C22.4,31.9,25.9-9.8-9-9.8L-9-9.8z
			"/>
	</g>
	<g class="st1">
		<path d="M51.4-8.8v39.7H22.7C22.5,26.8,22.5,9.6,32-0.7C36.8-5.9,43.3-8.6,51.4-8.8 M52.4-9.8c-34,0-30.6,41.7-30.6,41.7h30.6
			V-9.8L52.4-9.8z"/>
	</g>
	<path class="st2" d="M-8.5-2"/>
	<path class="st2" d="M-8.5,24.1"/>
</g>
<g id="Layer_2_1_">
	<g>
		<g>
			<path d="M40.6,1v20.1H1V1H40.6 M41.6,0H0v22.1h41.6V0L41.6,0z"/>
		</g>
		<g>
			<path d="M38.1,4v14H3.5V4L38.1,4 M39.1,3H2.5v16h36.6V3L39.1,3z"/>
		</g>
	</g>
</g>
</svg>
