<?xml version="1.0" encoding="utf-8"?>
<!-- Generator: Adobe Illustrator 24.3.0, SVG Export Plug-In . SVG Version: 6.00 Build 0)  -->
<svg width="300" height="200" version="1.1" id="Layer_1" xmlns="http://www.w3.org/2000/svg" xmlns:xlink="http://www.w3.org/1999/xlink" x="0px" y="0px"
	 viewBox="0 0 28.7 23.2" style="enable-background:new 0 0 28.7 23.2;" xml:space="preserve">
<style type="text/css">
	.st0{display:none;}
	.st1{display:inline;}
	.st2{fill:none;stroke:#000000;stroke-miterlimit:10;}
</style>
<g class="st0">
	<path class="st1" d="M0.5-8.3c8.5,0.2,15.3,3,20.2,8.4c9.5,10.3,9.4,27.2,9.3,31.3H0.5V-8.3 M-0.5-9.3v41.7h31.4
		C30.9,32.4,34.4-9.3-0.5-9.3L-0.5-9.3z"/>
</g>
<g class="st0">
	<path class="st1" d="M59.9-8.3v39.7H31.2C31,27.3,31,10.1,40.5-0.2C45.3-5.4,51.8-8.1,59.9-8.3 M60.9-9.3
		c-34,0-30.6,41.7-30.6,41.7h30.6V-9.3L60.9-9.3z"/>
</g>
<path class="st2" d="M0-1.5"/>
<path class="st2" d="M0,24.6"/>
<g>
	<g>
		<ellipse class="st2" cx="16.6" cy="11.6" rx="8.7" ry="6.7"/>
		<path class="st2" d="M6.7,6.9c2-2.5,5.7-4.2,9.9-4.2c6.4,0,11.6,4,11.6,8.9s-5.2,8.9-11.6,8.9c-4.2,0-7.8-1.7-9.9-4.2"/>
	</g>
	<rect x="0.5" y="0.5" class="st2" width="6.3" height="22.1"/>
</g>
</svg>
