<?xml version="1.0" encoding="utf-8"?>
<svg width="300" height="200" viewBox="0 0 61.4 5.7"  xml:space="preserve" style="max-height: 500px" y="0px" x="0px" id="Layer_1" version="1.1" xmlns:xlink="http://www.w3.org/1999/xlink" xmlns="http://www.w3.org/2000/svg" >
<style type="text/css">
	.st0{display:none;}
	.st1{display:inline;}
	.st2{display:none;fill:none;stroke:#000000;stroke-linecap:round;stroke-linejoin:round;stroke-miterlimit:10;}
</style>
<g class="st0">
	<path d="M1-17c8.5,0.2,15.3,3,20.2,8.4c9.5,10.3,9.4,27.2,9.3,31.3H1V-17 M0-18v41.7h31.4C31.4,23.7,34.9-18,0-18L0-18   z" class="st1"/>
</g>
<g class="st0">
	<path d="M60.4-17v39.7H31.7C31.5,18.6,31.5,1.4,41-8.9C45.8-14.1,52.3-16.8,60.4-17 M61.4-18   c-34,0-30.6,41.7-30.6,41.7h30.6V-18L61.4-18z" class="st1"/>
</g>
<line y2="-13.3" x2="60.6" y1="-17.1" x1="0.9" class="st2"/>
<line y2="-13.4" x2="0.9" y1="-16.9" x1="60.6" class="st2"/>
<g>
	<g>
		<path d="M60.4,1v3.7H1V1H60.4 M61.4,0H0v5.7h61.4V0L61.4,0z"/>
	</g>
	<rect height="4.7" width="60.2" y="0.5" x="0.7"/>
</g>
</svg>