<?xml version="1.0" encoding="utf-8"?>
<!-- Generator: Adobe Illustrator 24.3.0, SVG Export Plug-In . SVG Version: 6.00 Build 0)  -->
<svg width="300" height="200" version="1.1" id="Layer_1" xmlns="http://www.w3.org/2000/svg" xmlns:xlink="http://www.w3.org/1999/xlink" x="0px" y="0px"
	 viewBox="0 0 61.4 5.7" style="enable-background:new 0 0 61.4 5.7;" xml:space="preserve"  preserveAspectRatio="none">
<style type="text/css">
	.st0{display:none;}
	.st1{display:inline;}
	.st2{fill:none;stroke:#000000;stroke-width:0.5;stroke-linecap:round;stroke-linejoin:round;stroke-miterlimit:10;}
</style>
<g class="st0">
	<path class="st1" d="M1-17c8.5,0.2,15.3,3,20.2,8.4c9.5,10.3,9.4,27.2,9.3,31.3H1V-17 M0-18v41.7h31.4C31.4,23.7,34.9-18,0-18L0-18
		z"/>
</g>
<g class="st0">
	<path class="st1" d="M60.4-17v39.7H31.7C31.5,18.6,31.5,1.4,41-8.9C45.8-14.1,52.3-16.8,60.4-17 M61.4-18
		c-34,0-30.6,41.7-30.6,41.7h30.6V-18L61.4-18z"/>
</g>
<g>
	<g>
		<path d="M60.4,1v3.7H1V1H60.4 M61.4,0H0v5.7h61.4V0L61.4,0z"/>
	</g>
	<line class="st2" x1="0.9" y1="0.9" x2="60.6" y2="4.7"/>
	<line class="st2" x1="60.6" y1="1.1" x2="0.9" y2="4.6"/>
</g>
</svg>
