<svg width="92" height="12" viewBox="0 0 92 12" fill="none" xmlns="http://www.w3.org/2000/svg">
<path d="M8.58 6.13H10.425V11.5H8.82V10.885C8.07 11.395 7.13 11.65 6 11.65C5.03 11.65 4.14 11.44 3.33 11.02C2.52 10.6 1.87 9.99 1.38 9.19C0.9 8.39 0.66 7.435 0.66 6.325C0.66 5.275 0.905 4.335 1.395 3.505C1.885 2.665 2.56 2.015 3.42 1.555C4.29 1.085 5.265 0.85 6.345 0.85C7.225 0.85 8.025 0.995 8.745 1.285C9.465 1.575 10.07 2 10.56 2.56L9.33 3.76C8.53 2.96 7.565 2.56 6.435 2.56C5.695 2.56 5.035 2.72 4.455 3.04C3.885 3.35 3.435 3.79 3.105 4.36C2.785 4.93 2.625 5.58 2.625 6.31C2.625 7.08 2.785 7.745 3.105 8.305C3.435 8.855 3.87 9.275 4.41 9.565C4.95 9.845 5.54 9.985 6.18 9.985C6.63 9.985 7.06 9.915 7.47 9.775C7.89 9.635 8.26 9.43 8.58 9.16V6.13ZM17.0619 3.4C18.0719 3.4 18.8819 3.695 19.4919 4.285C20.1019 4.875 20.4069 5.75 20.4069 6.91V11.5H18.5319V7.15C18.5319 6.45 18.3669 5.925 18.0369 5.575C17.7069 5.215 17.2369 5.035 16.6269 5.035C15.9369 5.035 15.3919 5.245 14.9919 5.665C14.5919 6.075 14.3919 6.67 14.3919 7.45V11.5H12.5169V0.37H14.3919V4.42C14.7019 4.09 15.0819 3.84 15.5319 3.67C15.9919 3.49 16.5019 3.4 17.0619 3.4ZM30.3887 3.49V11.5H28.6037V10.465C28.2937 10.845 27.9087 11.13 27.4487 11.32C26.9987 11.51 26.4987 11.605 25.9487 11.605C25.1687 11.605 24.4687 11.435 23.8487 11.095C23.2387 10.755 22.7587 10.275 22.4087 9.655C22.0687 9.035 21.8987 8.315 21.8987 7.495C21.8987 6.675 22.0687 5.96 22.4087 5.35C22.7587 4.73 23.2387 4.25 23.8487 3.91C24.4687 3.57 25.1687 3.4 25.9487 3.4C26.4687 3.4 26.9437 3.49 27.3737 3.67C27.8137 3.85 28.1937 4.115 28.5137 4.465V3.49H30.3887ZM26.1587 10C26.8487 10 27.4187 9.77 27.8687 9.31C28.3187 8.85 28.5437 8.245 28.5437 7.495C28.5437 6.745 28.3187 6.14 27.8687 5.68C27.4187 5.22 26.8487 4.99 26.1587 4.99C25.4687 4.99 24.8987 5.22 24.4487 5.68C24.0087 6.14 23.7887 6.745 23.7887 7.495C23.7887 8.245 24.0087 8.85 24.4487 9.31C24.8987 9.77 25.4687 10 26.1587 10ZM34.3269 4.66C34.8669 3.82 35.8169 3.4 37.1769 3.4V5.185C37.0169 5.155 36.8719 5.14 36.7419 5.14C36.0119 5.14 35.4419 5.355 35.0319 5.785C34.6219 6.205 34.4169 6.815 34.4169 7.615V11.5H32.5419V3.49H34.3269V4.66ZM90.1439 11.62C89.7339 11.62 89.3889 11.48 89.1089 11.2C88.8289 10.92 88.6889 10.57 88.6889 10.15C88.6889 9.72 88.8289 9.375 89.1089 9.115C89.3889 8.845 89.7339 8.71 90.1439 8.71C90.5539 8.71 90.8989 8.845 91.1789 9.115C91.4589 9.375 91.5989 9.72 91.5989 10.15C91.5989 10.57 91.4589 10.92 91.1789 11.2C90.8989 11.48 90.5539 11.62 90.1439 11.62Z" fill="#468378"/>
<path d="M46.2657 6.04C46.8657 6.23 47.3357 6.55 47.6757 7C48.0157 7.44 48.1857 7.985 48.1857 8.635C48.1857 9.555 47.8257 10.265 47.1057 10.765C46.3957 11.255 45.3557 11.5 43.9857 11.5H38.5557V1H43.6857C44.9657 1 45.9457 1.245 46.6257 1.735C47.3157 2.225 47.6607 2.89 47.6607 3.73C47.6607 4.24 47.5357 4.695 47.2857 5.095C47.0457 5.495 46.7057 5.81 46.2657 6.04ZM40.9707 2.83V5.305H43.3857C43.9857 5.305 44.4407 5.2 44.7507 4.99C45.0607 4.78 45.2157 4.47 45.2157 4.06C45.2157 3.65 45.0607 3.345 44.7507 3.145C44.4407 2.935 43.9857 2.83 43.3857 2.83H40.9707ZM43.8057 9.67C44.4457 9.67 44.9257 9.565 45.2457 9.355C45.5757 9.145 45.7407 8.82 45.7407 8.38C45.7407 7.51 45.0957 7.075 43.8057 7.075H40.9707V9.67H43.8057ZM57.7505 3.43V11.5H55.5155V10.57C54.9355 11.27 54.0955 11.62 52.9955 11.62C52.2355 11.62 51.5455 11.45 50.9255 11.11C50.3155 10.77 49.8355 10.285 49.4855 9.655C49.1355 9.025 48.9605 8.295 48.9605 7.465C48.9605 6.635 49.1355 5.905 49.4855 5.275C49.8355 4.645 50.3155 4.16 50.9255 3.82C51.5455 3.48 52.2355 3.31 52.9955 3.31C54.0255 3.31 54.8305 3.635 55.4105 4.285V3.43H57.7505ZM53.4005 9.7C53.9905 9.7 54.4805 9.5 54.8705 9.1C55.2605 8.69 55.4555 8.145 55.4555 7.465C55.4555 6.785 55.2605 6.245 54.8705 5.845C54.4805 5.435 53.9905 5.23 53.4005 5.23C52.8005 5.23 52.3055 5.435 51.9155 5.845C51.5255 6.245 51.3305 6.785 51.3305 7.465C51.3305 8.145 51.5255 8.69 51.9155 9.1C52.3055 9.5 52.8005 9.7 53.4005 9.7ZM64.5219 3.31C65.5219 3.31 66.3269 3.61 66.9369 4.21C67.5569 4.81 67.8669 5.7 67.8669 6.88V11.5H65.5269V7.24C65.5269 6.6 65.3869 6.125 65.1069 5.815C64.8269 5.495 64.4219 5.335 63.8919 5.335C63.3019 5.335 62.8319 5.52 62.4819 5.89C62.1319 6.25 61.9569 6.79 61.9569 7.51V11.5H59.6169V3.43H61.8519V4.375C62.1619 4.035 62.5469 3.775 63.0069 3.595C63.4669 3.405 63.9719 3.31 64.5219 3.31ZM77.9659 3.43V11.5H75.7309V10.57C75.1509 11.27 74.3109 11.62 73.2109 11.62C72.4509 11.62 71.7609 11.45 71.1409 11.11C70.5309 10.77 70.0509 10.285 69.7009 9.655C69.3509 9.025 69.1759 8.295 69.1759 7.465C69.1759 6.635 69.3509 5.905 69.7009 5.275C70.0509 4.645 70.5309 4.16 71.1409 3.82C71.7609 3.48 72.4509 3.31 73.2109 3.31C74.2409 3.31 75.0459 3.635 75.6259 4.285V3.43H77.9659ZM73.6159 9.7C74.2059 9.7 74.6959 9.5 75.0859 9.1C75.4759 8.69 75.6709 8.145 75.6709 7.465C75.6709 6.785 75.4759 6.245 75.0859 5.845C74.6959 5.435 74.2059 5.23 73.6159 5.23C73.0159 5.23 72.5209 5.435 72.1309 5.845C71.7409 6.245 71.5459 6.785 71.5459 7.465C71.5459 8.145 71.7409 8.69 72.1309 9.1C72.5209 9.5 73.0159 9.7 73.6159 9.7ZM83.6723 11.62C82.8223 11.62 82.0573 11.445 81.3773 11.095C80.7073 10.735 80.1823 10.24 79.8023 9.61C79.4223 8.98 79.2323 8.265 79.2323 7.465C79.2323 6.665 79.4223 5.95 79.8023 5.32C80.1823 4.69 80.7073 4.2 81.3773 3.85C82.0573 3.49 82.8223 3.31 83.6723 3.31C84.5223 3.31 85.2823 3.49 85.9523 3.85C86.6223 4.2 87.1473 4.69 87.5273 5.32C87.9073 5.95 88.0973 6.665 88.0973 7.465C88.0973 8.265 87.9073 8.98 87.5273 9.61C87.1473 10.24 86.6223 10.735 85.9523 11.095C85.2823 11.445 84.5223 11.62 83.6723 11.62ZM83.6723 9.7C84.2723 9.7 84.7623 9.5 85.1423 9.1C85.5323 8.69 85.7273 8.145 85.7273 7.465C85.7273 6.785 85.5323 6.245 85.1423 5.845C84.7623 5.435 84.2723 5.23 83.6723 5.23C83.0723 5.23 82.5773 5.435 82.1873 5.845C81.7973 6.245 81.6023 6.785 81.6023 7.465C81.6023 8.145 81.7973 8.69 82.1873 9.1C82.5773 9.5 83.0723 9.7 83.6723 9.7Z" fill="white"/>
</svg>
